<?xml version="1.0" encoding="utf-8"?>
<!-- Generator: Adobe Illustrator 16.0.0, SVG Export Plug-In . SVG Version: 6.00 Build 0)  -->
<!DOCTYPE svg PUBLIC "-//W3C//DTD SVG 1.1//EN" "http://www.w3.org/Graphics/SVG/1.1/DTD/svg11.dtd">
<svg version="1.1" id="Layer_1" xmlns:sketch="http://www.bohemiancoding.com/sketch/ns"
	 xmlns="http://www.w3.org/2000/svg" xmlns:xlink="http://www.w3.org/1999/xlink" x="0px" y="0px" width="260px" height="80px"
	 viewBox="0 0 124 23" enable-background="new 0 0 124 23" xml:space="preserve">
<style type="text/css">
	.st0{fill:#E50012;}
	.st1{fill:#231815;}
	.st2{fill:#FFFFFF;}
</style>
<title>ltt_logo</title>
<desc>雷科股份有限公司</desc>
<path class="st0" d="M21.7,14.3h99.7v-0.7H21l-2.4-0.4c0-0.2-0.1-0.4-0.2-0.5l5.2-3.2l-5.7,2.2c-0.1-0.1-0.2-0.3-0.3-0.4l5.8-7.4
	l-6.9,6.3c0,0-0.2-0.1-0.3-0.1l1.5-6.3l-2.5,5.8c-0.1,0-0.3-0.1-0.4-0.1L14-0.1l-0.7,9.5c-0.2,0-0.3,0-0.5,0.1L9.7,4.1l2,5.8
	c-0.2,0.1-0.4,0.2-0.5,0.3l-6.8-6l5.7,6.9c-0.2,0.2-0.3,0.4-0.5,0.7l-5.4-1.5l5,2.4C9.1,13,9,13.2,9,13.5l-8.3,0.8L9,14.9
	c0,0.3,0.1,0.7,0.2,1l-4.6,2.8l5-2c0.1,0.3,0.3,0.5,0.5,0.7l-6.2,7.7l7.2-6.7c0.2,0.2,0.5,0.3,0.7,0.4l-1.4,5.7l2.3-5.4
	c0.2,0,0.5,0.1,0.7,0.1L14.2,30l0.7-10.9c0.2-0.1,0.4-0.1,0.6-0.2l2.9,5.3l-2-5.7c0.2-0.1,0.3-0.2,0.5-0.4l7.3,6.3l-6.3-7.5
	c0.1-0.2,0.2-0.4,0.3-0.6l5.7,1.5l-5.3-2.6c0-0.2,0.1-0.4,0.1-0.6L21.7,14.3z"/>
<g>
	<path class="st1" d="M27.3,6.5h2.5l-2.6,12.2h7l-0.7,2.1h-9.2L27.3,6.5z"/>
	<path class="st1" d="M40.1,14.8l-3.2,6h-2.7L42,6.5h3.2l2,14.3h-2.5l-0.7-6L40.1,14.8z M43.6,12.7c-0.4-3.1-0.4-3-0.4-4.2l0,0
		c-0.6,1.4-0.7,1.5-2.1,4.2H43.6z"/>
	<path class="st1" d="M49.8,16.5c0.1,1.6,1.1,2.5,3,2.5c1.7,0,2.7-0.7,2.7-2.1c0-1.2-0.7-1.8-2.7-2.6c-2.8-1-3.8-2.1-3.8-3.9
		c0-2.2,1.6-4.2,5.1-4.2c3.3,0,4.9,1.7,5,4.1h-2.6c-0.1-1.1-0.6-2.1-2.5-2.1c-1.4,0-2.3,0.7-2.3,1.9c0,0.9,0.5,1.4,2.4,2.1
		c2.9,1,4.2,2.2,4.2,4.3c0,2.3-1.4,4.4-5.6,4.4c-3.5,0-5.3-1.8-5.3-4.5h2.4C49.8,16.4,49.8,16.5,49.8,16.5z"/>
	<path class="st1" d="M69.5,14.8h-6.6l-0.8,3.8h7.4l-0.7,2.1h-9.6l3-14.3h9.3l-0.4,2.1h-6.8l-0.9,4.1H70L69.5,14.8z"/>
	<path class="st1" d="M108.2,14.8h-6.6l-0.8,3.9h7.4l-0.7,2.1h-9.6l3-14.3h9.3l-0.4,2.1H103l-0.9,4.1h6.6L108.2,14.8z"/>
	<path class="st1" d="M74.4,14.8l-1.3,6h-2.5l3-14.3h5.2c2.7,0,4.2,1.4,4.2,3.6c0,2-1.2,3.3-3,3.8c0.7,0.3,1.8,1,1.3,3.5
		c-0.4,1.7-0.6,2.8-0.5,3.4h-2.4c-0.1-0.6,0.1-1.7,0.4-3.4c0.4-1.7,0-2.6-1.8-2.6C77,14.8,74.4,14.8,74.4,14.8z M74.8,12.7h2.5
		c1.9,0,3.2-0.7,3.2-2.3c0-1.2-0.7-1.8-2.2-1.8h-2.6L74.8,12.7z"/>
	<path class="st1" d="M92.6,8.6h-4.3l0.5-2.1h11.1l-0.5,2.1h-4.3l-2.6,12.2H90L92.6,8.6z"/>
	<path class="st1" d="M112.1,6.5h2.5l-1.4,6.6c1.1-1.1,4.9-4.4,7.3-6.6h3.1l-7,6.1l4.2,8.2H118l-3.3-6.7l-2.1,1.6l-1.1,5.1H109
		L112.1,6.5z"/>
</g>
<path class="st2" d="M12.2,12.1c0,0.3-0.3,0.6-0.6,0.6S11,12.4,11,12.1s0.3-0.6,0.6-0.6S12.2,11.7,12.2,12.1z"/>
<g>
	<path d="M31.5,25.1h-0.8v-1.6h-2.6v2h-0.8v-2h-2.6v1.6h-0.8v-2.3h3.4v-0.5h-3.1v-0.7h7v0.7h-3.1v0.5h3.4V25.1z M31,29.5h-0.8v-0.3
		h-4.8v0.3h-0.8v-3.8h6.5v3.8H31z M27,23.9l-0.2,0.6c-0.6-0.1-1.2-0.2-1.8-0.2l0.2-0.6C25.9,23.7,26.5,23.8,27,23.9z M27,25.2
		c-0.5,0.1-1.1,0.2-1.8,0.3L25,24.9c0.6,0,1.2-0.1,1.8-0.2L27,25.2z M27.3,27.1v-0.7h-2v0.7H27.3z M27.3,28.5v-0.7h-2v0.7H27.3z
		 M30.2,27.1v-0.7h-2v0.7H30.2z M30.2,28.5v-0.7h-2v0.7H30.2z M30.4,24.9l-0.2,0.6c-0.6-0.1-1.2-0.2-1.8-0.2l0.2-0.6
		C29.4,24.7,30,24.8,30.4,24.9z M30.4,24.2c-0.6,0.1-1.2,0.2-1.8,0.3l-0.2-0.6c0.5-0.1,1.1-0.1,1.7-0.2L30.4,24.2z"/>
	<path d="M40.4,22.1c-0.4,0.1-0.9,0.3-1.4,0.3v1.2h1.2v0.8H39v0.3c0.5,0.5,0.9,1,1.2,1.6l-0.6,0.6c-0.2-0.4-0.4-0.8-0.7-1.1v3.8
		h-0.7v-3.7c-0.4,0.8-0.8,1.5-1.2,1.8L36.5,27c0.6-0.7,1.2-1.5,1.7-2.6h-1.6v-0.8h1.6v-1.1c-0.4,0.1-0.8,0.1-1.2,0.1l-0.3-0.8
		c1.2-0.1,2.3-0.2,3.3-0.5L40.4,22.1z M44.6,27.2l-0.9,0.1v2.2h-0.8v-2.1l-2.7,0.4L40.1,27l2.8-0.4v-5.1h0.8v5l0.8-0.1L44.6,27.2z
		 M42.5,25.5l-0.6,0.6c-0.4-0.5-1-1-1.7-1.6l0.5-0.6C41.5,24.5,42.1,25,42.5,25.5z M42.7,23.3l-0.6,0.6c-0.5-0.6-1.1-1.1-1.6-1.5
		l0.6-0.6C41.7,22.3,42.2,22.8,42.7,23.3z"/>
	<path d="M52.5,28.8c0,0.5-0.3,0.8-0.9,0.8c-0.1,0-0.3,0-0.4,0l-0.3-0.8c0.1,0,0.3,0,0.7,0c0.1,0,0.1,0,0.1-0.1v-2.2
		c-0.3,0.4-0.5,0.7-0.8,0.9l-0.3-0.5c-0.1,1.3-0.3,2.2-0.6,2.8l-0.7-0.5c0.3-0.7,0.5-1.7,0.5-3.1v-4.4h2.6v7.1H52.5z M51.7,24.3
		v-1.9h-1v1l0.5-0.3C51.4,23.5,51.6,23.9,51.7,24.3z M51.7,25v-0.5l-0.5,0.4c-0.1-0.4-0.2-0.8-0.5-1.2v2.6
		C51,25.9,51.4,25.5,51.7,25z M57.5,28.9l-0.4,0.7c-0.8-0.2-1.5-0.5-2.1-1c-0.5,0.4-1.2,0.7-2,1l-0.4-0.7c0.7-0.2,1.3-0.5,1.8-0.9
		c-0.5-0.5-0.8-1.1-1.1-2h-0.4v-0.8H57v0.9c-0.4,0.8-0.8,1.5-1.3,1.9C56.1,28.3,56.8,28.6,57.5,28.9z M57.4,24.8h-1.3
		c-0.2,0-0.3-0.1-0.4-0.2c-0.1-0.1-0.2-0.3-0.2-0.4v-1.7h-1.3v0.4c0,0.9-0.3,1.6-0.9,2.2l-0.7-0.5c0.5-0.4,0.7-0.9,0.7-1.7v-1.2h2.9
		v2.2c0,0.1,0,0.1,0.1,0.1h1v0.8H57.4z M56,26.1h-1.9c0.3,0.6,0.6,1.1,0.9,1.4C55.4,27,55.8,26.5,56,26.1z"/>
	<path d="M65,21.6c-0.1,0.3-0.3,0.7-0.5,1.1l-0.3,0.7v6.2h-0.8v-4.7c-0.2,0.4-0.5,0.6-0.7,0.9l-0.5-1c0.8-0.9,1.4-2.1,1.9-3.4
		L65,21.6z M70.4,24.2L69.9,25l-0.2-0.1c0,0.3,0,1.1-0.1,2.2s-0.1,1.8-0.2,2s-0.2,0.3-0.3,0.5c-0.2,0.1-0.4,0.2-0.7,0.2
		c-0.2,0-0.5,0-0.9,0l-0.3-1c0.3,0,0.5,0,0.7,0c0.4,0,0.6,0,0.7-0.1s0.1-0.6,0.2-1.4s0.1-1.5,0.1-1.8h-1.4c-0.1,1.9-0.9,3.3-2.4,4.1
		l-0.6-0.7c1.3-0.7,2-1.8,2.1-3.5h-1.5v-0.7c-0.1,0.1-0.1,0.1-0.2,0.2l-0.5-0.7c0.7-0.6,1.3-1.6,1.8-2.8l0.8,0.2
		c-0.5,1.3-1.1,2.3-1.8,3h4.3c-0.6-0.6-1.1-1.4-1.4-2.3h-0.8v-0.8h1.4C69,22.8,69.5,23.7,70.4,24.2z"/>
	<path d="M83.1,23.1h-4.5c-0.1,0.2-0.3,0.5-0.5,0.8h4.3v5c0,0.2-0.1,0.4-0.2,0.5s-0.3,0.2-0.5,0.2s-0.4,0-0.7,0c-0.3,0-0.6,0-0.8,0
		l-0.4-0.8c0.4,0,0.9,0,1.5,0c0.1,0,0.2-0.1,0.2-0.2v-0.9h-4.1c-0.2,0.7-0.5,1.3-1,1.9l-0.6-0.5c0.7-0.7,1-1.4,1-2v-1.5
		c-0.4,0.4-0.8,0.8-1.2,1L75,26c1.1-0.7,2-1.7,2.7-2.8h-2.6v-0.8h3c0.2-0.3,0.3-0.7,0.4-0.9l0.8,0.1c-0.1,0.2-0.2,0.5-0.3,0.8h4.1
		V23.1z M81.7,25.4v-0.7h-4v0.7H81.7z M81.7,26.9v-0.7h-4v0.7H81.7z"/>
	<path d="M90.3,24.3c0.5,0.7,0.8,1.5,0.8,2.1c0,0.9-0.4,1.3-1.3,1.3c-0.1,0-0.2,0-0.3,0l-0.2-0.8c0.1,0,0.3,0,0.4,0
		c0.2,0,0.4,0,0.4-0.1c0.1-0.1,0.1-0.2,0.1-0.4c0-0.7-0.3-1.4-0.8-2.1c0.2-0.4,0.4-1.1,0.6-1.9h-1v7.1h-0.8v-7.9h2.6v0.8
		C90.7,23.1,90.5,23.7,90.3,24.3z M95.5,25.5h-3.3v3c0.4-0.1,0.9-0.3,1.3-0.5v0.9c-0.8,0.4-1.5,0.6-2.1,0.7l-0.3-0.7
		c0.1-0.1,0.2-0.2,0.2-0.4v-6.9h4.1v3.9H95.5z M94.7,23.2v-0.8h-2.5v0.8H94.7z M94.7,24.7v-0.8h-2.5v0.8H94.7z M96.1,28.9l-0.5,0.7
		c-1.3-0.8-2.2-2-2.6-3.5l0.7-0.2c0.1,0.4,0.2,0.7,0.4,1c0.4-0.3,0.8-0.7,1.2-1.1l0.6,0.5c-0.5,0.6-0.9,1-1.3,1.3
		C95,28.1,95.5,28.6,96.1,28.9z"/>
	<path d="M104.2,21.7c-0.6,1.6-1.6,3-2.9,4.1l-0.5-0.7c1.2-0.9,2.1-2.2,2.7-3.7L104.2,21.7z M108.3,29.1l-0.7,0.5
		c-0.2-0.4-0.3-0.8-0.5-1c-1.4,0.3-3.1,0.6-5.2,0.9l-0.2-0.7c0.8-0.6,1.7-2.1,2.8-4.7l0.8,0.2c-0.7,1.8-1.5,3.2-2.3,4.2
		c1.4-0.2,2.6-0.4,3.7-0.7c-0.2-0.3-0.5-0.8-1-1.4l0.7-0.4C107.2,27,107.8,28,108.3,29.1z M108.9,25.1l-0.5,0.7
		c-1.1-0.8-2-2-2.5-3.5h-0.7v-0.8h1.3C107,23.1,107.8,24.3,108.9,25.1z"/>
	<path d="M121.4,28.5c0,0.7-0.3,1.1-1,1.1c-0.6,0-1.1,0-1.4,0l-0.2-0.8c0.7,0,1.2,0,1.4,0c0.3,0,0.4-0.1,0.4-0.2v-6.1h-6.9v-0.8h7.7
		V28.5z M119.8,23.9h-5.9v-0.8h5.9V23.9z M119.2,27.9h-4.8v-3.1h4.8V27.9z M118.4,27.1v-1.6h-3.2v1.6H118.4z"/>
</g>
</svg>
