<?xml version="1.0" encoding="utf-8"?>
<!-- Generator: Adobe Illustrator 23.0.6, SVG Export Plug-In . SVG Version: 6.00 Build 0)  -->
<svg version="1.1" id="Layer_1" xmlns="http://www.w3.org/2000/svg" xmlns:xlink="http://www.w3.org/1999/xlink" x="0px" y="0px" width="40px" height="40px"
	 viewBox="0 0 40 40" style="enable-background:new 0 0 40 40;" xml:space="preserve">
<style type="text/css">
	.st0{fill:#585C5E;}
	.st1{fill:#FF0000;}
</style>
<g>
	<path class="st0" d="M32.8,32.5c-0.1-6.4-2.9-11.2-8-13.6l-0.6-0.3l-4.2,6.7l-4.1-6.8l-0.6,0.2c-4,1.5-8.2,5.9-8.1,13.7l0,0.5
		l0.5,0.2c1.1,0.4,2.2,0.8,3.3,1.1v-1.6c-0.8-0.2-1.5-0.5-2.3-0.7c0.1-5.5,2.5-9.7,6.5-11.5l3.6,5.9H21l3.6-5.8
		c4,2.1,6.3,6.2,6.6,11.4c-0.7,0.3-1.4,0.5-2.1,0.7v1.6c1-0.3,2.1-0.7,3.1-1.1l0.5-0.2L32.8,32.5z"/>
	<path class="st0" d="M19.8,18.5c4.2,0,7.7-3.4,7.7-7.6S24,3.3,19.8,3.3c-4.1,0-7.6,3.5-7.6,7.6C12.1,15.1,15.6,18.5,19.8,18.5z
		 M19.8,4.8c3.4,0,6.2,2.8,6.2,6.1S23.2,17,19.8,17c-3.4,0-6.1-2.8-6.1-6.1C13.6,7.6,16.5,4.8,19.8,4.8z"/>
</g>
<path class="st1" d="M20,28.2c-3.9-4.3-7.5,0.7-5.6,4.3c1.4,2.8,5.2,5.8,5.6,6.1v0l0,0l0,0v0c0.4-0.3,4.2-3.3,5.6-6.1
	C27.5,29,23.9,23.9,20,28.2z"/>
</svg>
