<?xml version="1.0" encoding="utf-8"?>
<!-- Generator: Adobe Illustrator 23.0.6, SVG Export Plug-In . SVG Version: 6.00 Build 0)  -->
<svg version="1.1" id="Layer_1" xmlns="http://www.w3.org/2000/svg" xmlns:xlink="http://www.w3.org/1999/xlink" x="0px" y="0px" width="40px" height="40px"
	 viewBox="0 0 40 40" style="enable-background:new 0 0 40 40;" xml:space="preserve">
<style type="text/css">
	.st0{fill-rule:evenodd;clip-rule:evenodd;fill:#C4181F;}
	.st1{fill-rule:evenodd;clip-rule:evenodd;fill:#585C5E;}
	.st2{fill-rule:evenodd;clip-rule:evenodd;fill:none;stroke:#585C5E;stroke-width:1.5;stroke-miterlimit:10;}
	.st3{fill-rule:evenodd;clip-rule:evenodd;fill:none;stroke:#585C5E;stroke-width:1.4296;stroke-miterlimit:10;}
</style>
<polygon class="st0" points="15.4,19.4 19.5,17.9 19.9,17.8 20.2,18 23.4,20 26,12.5 26.4,11.4 27.2,12.3 29.6,14.8 33.1,8.8 
	34.4,9.5 30.4,16.4 29.9,17.2 29.2,16.5 27,14.2 24.5,21.3 24.1,22.2 23.3,21.7 19.7,19.4 15.9,20.8 "/>
<g>
	<path class="st1" d="M12.2,15.6h8.6c0.7,0,1.2-0.6,1.2-1.2v-1c0-0.7-0.6-1.2-1.2-1.2h-7.7H13H9.1l0,0H7.8l0,0H4l-1.8,9.6l2.3,1.8
		L3.8,37.1h3.3l0.6-11.7h1.4l0.7,11.7H13l-0.5-13.6L12.2,15.6z"/>
	<path class="st1" d="M8.5,11.2c2,0,3.6-1.7,3.6-3.6c0-2-1.7-3.6-3.6-3.6c-2,0-3.6,1.7-3.6,3.6C4.9,9.6,6.4,11.2,8.5,11.2z"/>
</g>
<polyline class="st2" points="13.7,5.2 36.3,5.2 36.3,27.5 14.7,27.5 "/>
<polyline class="st3" points="18.3,36.6 24.1,28 29.9,36.6 "/>
</svg>
