<?xml version="1.0" encoding="utf-8"?>
<!-- Generator: Adobe Illustrator 23.0.6, SVG Export Plug-In . SVG Version: 6.00 Build 0)  -->
<svg version="1.1" id="Layer_1" xmlns="http://www.w3.org/2000/svg" xmlns:xlink="http://www.w3.org/1999/xlink" x="0px" y="0px" width="40px" height="40px"
	 viewBox="0 0 40 40" style="enable-background:new 0 0 40 40;" xml:space="preserve">
<style type="text/css">
	.st0{fill-rule:evenodd;clip-rule:evenodd;fill:#FF0000;}
	.st1{fill-rule:evenodd;clip-rule:evenodd;fill:none;stroke:#585C5E;stroke-width:1.5949;stroke-miterlimit:10;}
</style>
<path class="st0" d="M36.4,15.9l-4.8,9.2l0.7,0.5l4.6-8.7C36.8,16.5,36.6,16.1,36.4,15.9L36.4,15.9z M37.2,17.4l-4.4,8.4l0.7,0.5
	l4-7.7C37.3,18.3,37.3,17.8,37.2,17.4L37.2,17.4z M37.6,19.5c0.1,0.6,0.1,1.1,0.1,1.7l-3.2,5.9l-0.7-0.5L37.6,19.5L37.6,19.5z
	 M37.6,22.3c-0.2,2-0.9,3.9-2.1,5.6l-0.6-0.5L37.6,22.3L37.6,22.3z M31.2,24.8l4.6-8.8l-1.3,0.7l-4,7.6L31.2,24.8L31.2,24.8z
	 M30.1,23.9l3.6-7l-1.3,0.7l-3,5.7L30.1,23.9L30.1,23.9z M29,23.2l2.6-5l-1.3,0.7l-2,3.7L29,23.2L29,23.2z M27.9,22.4l1.6-3.1
	L28.1,20l-0.9,1.9L27.9,22.4L27.9,22.4z M26.8,21.6l0.6-1.1L26,21.2L26.8,21.6L26.8,21.6z M33.5,12.3L33.5,12.3L25,20.2l10.2-5.5
	C34.7,13.9,34.2,13.1,33.5,12.3L33.5,12.3z"/>
<path class="st1" d="M20,20.1l9.8-8.4C27.2,8.2,23.1,6,18.5,6C10.6,6,4.2,12.4,4.2,20.3s6.4,14.3,14.3,14.3c5.1,0,9.5-2.7,12.1-6.7
	L20,20.1z"/>
</svg>
