<?xml version="1.0" encoding="utf-8"?>
<!-- Generator: Adobe Illustrator 23.0.6, SVG Export Plug-In . SVG Version: 6.00 Build 0)  -->
<svg version="1.1" id="Layer_1" xmlns="http://www.w3.org/2000/svg" xmlns:xlink="http://www.w3.org/1999/xlink" x="0px" y="0px" width="40px" height="40px"
	 viewBox="0 0 40 40" style="enable-background:new 0 0 40 40;" xml:space="preserve">
<style type="text/css">
	.st0{fill:none;stroke:#585C5E;stroke-width:1.5;stroke-miterlimit:10;}
	.st1{fill:#FF0000;}
</style>
<path class="st0" d="M15.5,4.8c3.9,0,7,3.1,7,7s-3.1,7-7,7s-7-3.1-7-7S11.7,4.8,15.5,4.8L15.5,4.8z M28,34c-7.8,3.1-16,3.3-24.7,0
	c-0.1-7.2,3.4-11.6,7.8-13.3l4.5,7.5l4.7-7.3C24.6,22.7,27.9,27.1,28,34z"/>
<g>
	<circle class="st1" cx="29.5" cy="10" r="4.6"/>
	<path class="st1" d="M32.7,16l-3.1,4.8l-3-4.9c-1.5,0.6-2.8,1.6-3.8,3.2c1.7,1,4.6,3.1,6.1,7.1c3,0.1,6-0.4,8.9-1.5
		C37.7,20.1,35.5,17.2,32.7,16z"/>
</g>
</svg>
