<?xml version="1.0" encoding="utf-8"?>
<!-- Generator: Adobe Illustrator 23.0.6, SVG Export Plug-In . SVG Version: 6.00 Build 0)  -->
<svg version="1.1" id="Layer_1" xmlns="http://www.w3.org/2000/svg" xmlns:xlink="http://www.w3.org/1999/xlink" x="0px" y="0px"  width="40px" height="40px"
	 viewBox="0 0 40 40" style="enable-background:new 0 0 40 40;" xml:space="preserve">
<style type="text/css">
	.st0{fill:#FF0000;}
	.st1{fill:#585C5E;}
</style>
<g>
	<path class="st0" d="M20.3,22.5c-4.8,0-8.7-3.9-8.7-8.7s3.9-8.7,8.7-8.7c4.8,0,8.7,3.9,8.7,8.7S25.1,22.5,20.3,22.5z M20.3,6.4
		c-4.1,0-7.4,3.3-7.4,7.4s3.3,7.4,7.4,7.4c4.1,0,7.4-3.3,7.4-7.4S24.4,6.4,20.3,6.4z"/>
</g>
<g>
	<path class="st0" d="M20.3,25C14.1,25,9,19.9,9,13.7S14.1,2.5,20.3,2.5c6.2,0,11.3,5.1,11.3,11.3S26.5,25,20.3,25z M20.3,3.7
		c-5.5,0-10,4.5-10,10s4.5,10,10,10c5.5,0,10-4.5,10-10S25.8,3.7,20.3,3.7z"/>
</g>
<path class="st1" d="M14.2,24.7l-2.9,10.3l4.9-2.2l2.9,4.5l1.5-5.7l1.7,5.7l2.9-4.5l5,2.1L27,24.9C27,24.9,20.2,28.9,14.2,24.7z"/>
</svg>
