<?xml version="1.0" encoding="utf-8"?>
<!-- Generator: Adobe Illustrator 23.0.6, SVG Export Plug-In . SVG Version: 6.00 Build 0)  -->
<svg version="1.1" id="Layer_1" xmlns="http://www.w3.org/2000/svg" xmlns:xlink="http://www.w3.org/1999/xlink" x="0px" y="0px" width="40px" height="40px"
	 viewBox="0 0 40 40" style="enable-background:new 0 0 40 40;" xml:space="preserve">
<style type="text/css">
	.st0{fill:#FF0000;}
	.st1{fill:#585C5E;}
</style>
<path class="st0" d="M15.1,13.6c-3.5-3.7-6.5,0.8-4.8,3.9c1.3,2.4,4.6,5,5,5.2l0,0l0,0l0,0l0,0c0.3-0.3,3.6-3,4.8-5.4
	C21.6,14.2,18.4,9.8,15.1,13.6z"/>
<path class="st1" d="M17.7,8.3v-1h2.9v1c0,0.6,0.5,1,1,1H22c0.6,0,1-0.5,1-1v-1h3v1c0,0.6,0.5,1,1,1h0.3c0.6,0,1-0.5,1-1v-1h0.6
	l1.9,1.9v3h2V8.3l-3.1-3.1h-1.4v-1c0-0.6-0.5-1-1-1h-0.3c-0.6,0-1,0.5-1,1v1h-3v-1c0-0.6-0.4-1-1-1h-0.2c-0.6,0-1,0.5-1,1v1h-2.9v-1
	c0-0.6-0.5-1-1-1h-0.3c-0.6,0-1,0.5-1,1v1h-2.9v-1c0-0.6-0.5-1-1-1h-0.2c-0.6,0-1,0.5-1,1v1H5.5v30.3h26.9l0-2H7.5V7.3h2.8v1
	c0,0.6,0.5,1,1,1h0.2c0.6,0,1-0.5,1-1v-1h2.9v1c0,0.6,0.5,1,1,1h0.3C17.3,9.3,17.7,8.9,17.7,8.3z"/>
<path class="st1" d="M35.8,17.6L33,14.8c-0.7-0.7-1.8-0.7-2.5,0c0,0,0,0,0,0l0,0L20.3,24.9l-0.2,0.2l-1.8,7.1l7-1.8l0.7-0.7l0,0
	l9.7-9.8l0,0l0,0C36.5,19.3,36.5,18.2,35.8,17.6z M20.9,25.9l3.8,3.9l-3.6,0.9L20,29.4L20.9,25.9z M25.4,27.3l-2.2-2.2l7.3-7.3
	l2.2,2.2L25.4,27.3z"/>
</svg>
