<?xml version="1.0" encoding="utf-8"?>
<!-- Generator: Adobe Illustrator 23.0.6, SVG Export Plug-In . SVG Version: 6.00 Build 0)  -->
<svg version="1.1" id="Layer_1" xmlns="http://www.w3.org/2000/svg" xmlns:xlink="http://www.w3.org/1999/xlink" x="0px" y="0px" width="40px" height="40px"
	 viewBox="0 0 40 40" style="enable-background:new 0 0 40 40;" xml:space="preserve">
<style type="text/css">
	.st0{fill:none;stroke:#585C5E;stroke-width:1.5;stroke-miterlimit:10;}
	.st1{fill:#FF0000;}
	.st2{fill:#585C5E;}
</style>
<polyline class="st0" points="13,17.2 8,17.2 2,34.4 20,34.4 38,34.4 32,17.2 27,17.2 "/>
<g>
	<rect x="15.7" y="5.8" transform="matrix(0.3183 -0.948 0.948 0.3183 6.1034 27.3716)" class="st1" width="12.7" height="7.3"/>
	<polygon class="st1" points="15.8,16.6 17.8,23.8 22.7,18.9 	"/>
</g>
<g>
	<path class="st2" d="M9.8,32.1H7.1v-7.2h0.6v6.4h2.1V32.1z"/>
	<path class="st2" d="M13.4,32.1h-0.6l-0.4-2h-1.2l-0.4,2h-0.6l1.3-7.2h0.5L13.4,32.1z M12.3,29.3l-0.5-2.4l-0.5,2.4H12.3z"/>
	<path class="st2" d="M16.8,30.1c0,1.4-0.5,2-1.6,2c-0.8,0-1.3-0.6-1.5-1.8l0.6-0.3c0.1,0.4,0.2,0.8,0.3,1c0.1,0.2,0.3,0.3,0.6,0.3
		c0.7,0,1-0.4,1-1.2c0-0.5-0.4-1-1.2-1.5c-0.4-0.3-0.7-0.5-0.8-0.7c-0.3-0.3-0.4-0.7-0.4-1.2c0-0.6,0.1-1,0.4-1.3
		c0.3-0.3,0.6-0.5,1.1-0.5c0.8,0,1.2,0.5,1.5,1.5l-0.6,0.4c-0.2-0.7-0.5-1.1-0.9-1.1c-0.3,0-0.5,0.1-0.6,0.3
		c-0.1,0.2-0.2,0.4-0.2,0.7c0,0.2,0.1,0.5,0.3,0.7c0.1,0.1,0.3,0.3,0.6,0.5c0.4,0.3,0.8,0.6,1,0.8C16.6,29.1,16.8,29.6,16.8,30.1z"
		/>
	<path class="st2" d="M20,32.1h-2.7v-7.2H20v0.8h-2.1V28h1.8v0.9h-1.8v2.4H20V32.1z"/>
	<path class="st2" d="M23.4,27c0,0.9-0.3,1.5-1,1.8l1,3.3h-0.7l-0.9-3.2h-0.7v3.2h-0.6v-7.2h1.3c0.5,0,0.9,0.2,1.2,0.5
		C23.3,25.8,23.4,26.3,23.4,27z M22.8,26.9c0-0.8-0.3-1.1-1-1.1h-0.6v2.3h0.6C22.4,28.1,22.8,27.7,22.8,26.9z"/>
	<path class="st2" d="M26.8,25.7h-1.2v6.4H25v-6.4h-1.2v-0.8h3V25.7z"/>
	<path class="st2" d="M30.1,32.1h-2.7v-7.2h2.7v0.8h-2.1V28h1.8v0.9h-1.8v2.4h2.1V32.1z"/>
	<path class="st2" d="M33.6,32.1h-0.7l-1.4-3.3l-0.4,0.9v2.5h-0.6v-7.2h0.6v3.2l1.6-3.2h0.7L31.9,28L33.6,32.1z"/>
</g>
</svg>
