<?xml version="1.0" encoding="utf-8"?>
<!-- Generator: Adobe Illustrator 23.0.6, SVG Export Plug-In . SVG Version: 6.00 Build 0)  -->
<svg version="1.1" id="Layer_1" xmlns="http://www.w3.org/2000/svg" xmlns:xlink="http://www.w3.org/1999/xlink" x="0px" y="0px" width="40px" height="40px"
	 viewBox="0 0 40 40" style="enable-background:new 0 0 40 40;" xml:space="preserve">
<style type="text/css">
	.st0{fill:#E50012;}
	.st1{fill:none;stroke:#585C5E;stroke-width:1.5;stroke-miterlimit:10;}
	.st2{fill:none;stroke:#585C5E;stroke-width:2;stroke-miterlimit:10;}
</style>
<path class="st0" d="M31.6,20.9l-4.4-2.1c0-0.1,0.1-0.3,0.1-0.5l6.6-0.6l0,0l-6.7-0.6c0-0.1-0.1-0.3-0.1-0.4l4.2-2.6l-4.6,1.8
	c-0.1-0.1-0.1-0.2-0.2-0.3l4.8-5.9l-5.7,5c-0.1-0.1-0.2-0.1-0.3-0.2l1.3-5l-2.1,4.7c-0.1,0-0.2-0.1-0.3-0.1l-0.7-7.7l-0.6,7.7
	c-0.1,0-0.3,0-0.4,0.1L20,9.9l1.7,4.6c-0.1,0.1-0.3,0.1-0.4,0.2l-5.6-4.8l4.6,5.5c-0.1,0.2-0.3,0.3-0.4,0.5l-4.4-1.2l4,1.9
	c-0.1,0.2-0.1,0.4-0.2,0.7l-6.7,0.6l6.8,0.5c0,0.3,0.1,0.5,0.2,0.8l-3.7,2.3l4-1.6c0.1,0.2,0.3,0.4,0.4,0.6l-4.4,5.4l5.2-4.7
	c0.2,0.1,0.4,0.2,0.6,0.3L20.6,26l1.9-4.3c0.2,0,0.4,0.1,0.6,0.1l0.6,7.3l0.5-7.4c0.2,0,0.4-0.1,0.5-0.2l2.4,4.2l-1.6-4.6
	c0.1-0.1,0.3-0.2,0.4-0.3l5.5,4.8L26.7,20c0.1-0.1,0.2-0.3,0.3-0.4L31.6,20.9z M21.7,16.6c-0.3,0-0.5-0.2-0.5-0.5
	c0-0.3,0.2-0.5,0.5-0.5s0.5,0.2,0.5,0.5C22.2,16.4,22,16.6,21.7,16.6z"/>
<polygon class="st1" points="36,4.5 7.7,4.5 7.7,36 36.2,36 "/>
<line class="st2" x1="2.9" y1="10.5" x2="10.8" y2="10.5"/>
<line class="st2" x1="2.9" y1="14.7" x2="10.8" y2="14.7"/>
<line class="st2" x1="2.9" y1="18.3" x2="10.8" y2="18.3"/>
<line class="st2" x1="2.9" y1="22.5" x2="10.8" y2="22.5"/>
<line class="st2" x1="2.9" y1="26" x2="10.8" y2="26"/>
<line class="st2" x1="2.9" y1="30.2" x2="10.8" y2="30.2"/>
</svg>
