<?xml version="1.0" encoding="utf-8"?>
<!-- Generator: Adobe Illustrator 23.0.6, SVG Export Plug-In . SVG Version: 6.00 Build 0)  -->
<svg version="1.1" id="Layer_1" xmlns="http://www.w3.org/2000/svg" xmlns:xlink="http://www.w3.org/1999/xlink" x="0px" y="0px" width="40px" height="40px"
	 viewBox="0 0 40 40" style="enable-background:new 0 0 40 40;" xml:space="preserve">
<style type="text/css">
	.st0{fill:#FF0000;}
	.st1{fill:#585C5E;}
	.st2{fill:none;stroke:#585C5E;stroke-width:1.4945;stroke-miterlimit:10;}
</style>
<g>
	<path class="st0" d="M28.6,30.2c0,0,0-10.7,0-13.9c0-0.8-0.7-1.5-1.5-1.5s-1.5,0.7-1.5,1.5c0,2.6,0,13.9,0,13.9s-0.5-0.5-2.8-2.8
		c-0.6-0.6-1.5-0.6-2.1,0s-0.6,1.5,0,2.1c1.9,1.9,5.4,5.4,5.4,5.4c0.6,0.6,1.5,0.6,2.1,0c0,0,3-3,5.3-5.3c0.6-0.6,0.6-1.5,0-2.1
		s-1.5-0.6-2.1,0C29.5,29.3,28.6,30.2,28.6,30.2z"/>
</g>
<path class="st1" d="M6.8,17.9H22v-6.1H6.8c-1.6,0-2.9,1.2-2.9,2.6v1C3.9,16.8,5.2,17.9,6.8,17.9z M7.5,13.9c0.6,0,1,0.4,1,1
	s-0.4,1-1,1c-0.5,0-1-0.4-1-1S7,13.9,7.5,13.9z"/>
<path class="st1" d="M6.8,26.9h9.8V25l5.4-0.1v-4.1H6.8c-1.6,0-2.9,1.2-2.9,2.6v1C3.9,25.7,5.2,26.9,6.8,26.9z M7.5,22.8
	c0.6,0,1,0.4,1,1s-0.4,1-1,1c-0.5,0-1-0.4-1-1C6.5,23.3,7,22.8,7.5,22.8z"/>
<path class="st1" d="M6.8,35.1h15.7L16.7,29H6.8c-1.6,0-2.9,1.2-2.9,2.6v1C3.9,34,5.2,35.1,6.8,35.1z M7.5,31c0.6,0,1,0.4,1,1
	s-0.4,1-1,1c-0.5,0-1-0.4-1-1C6.5,31.5,7,31,7.5,31z"/>
<path class="st2" d="M3.7,6.2h30.6c1.4,0,2.6,1.2,2.6,2.6v27.6"/>
</svg>
