<?xml version="1.0" encoding="utf-8"?>
<!-- Generator: Adobe Illustrator 23.0.6, SVG Export Plug-In . SVG Version: 6.00 Build 0)  -->
<svg version="1.1" id="Layer_1" xmlns="http://www.w3.org/2000/svg" xmlns:xlink="http://www.w3.org/1999/xlink" x="0px" y="0px" width="40px" height="40px"
	 viewBox="0 0 40 40" style="enable-background:new 0 0 40 40;" xml:space="preserve">
<style type="text/css">
	.st0{fill:#FF0000;}
	.st1{fill-rule:evenodd;clip-rule:evenodd;fill:#585C5E;}
	.st2{fill:#585C5E;}
	.st3{fill:none;stroke:#585C5E;stroke-width:1.4236;stroke-miterlimit:10;}
</style>
<g>
	<path class="st0" d="M35.6,5.4c0,0.4-0.4,0.8-0.8,0.8h-4c-0.4,0-0.8-0.4-0.8-0.8l0,0c0-0.4,0.4-0.8,0.8-0.8h4
		C35.3,4.6,35.6,5,35.6,5.4L35.6,5.4z"/>
	<path class="st0" d="M32.8,2.6c0.4,0,0.8,0.4,0.8,0.8v4c0,0.4-0.4,0.8-0.8,0.8l0,0c-0.4,0-0.8-0.4-0.8-0.8v-4
		C32,3,32.4,2.6,32.8,2.6L32.8,2.6z"/>
</g>
<path class="st1" d="M21.8,20.1l3.1,1.8l0.3-0.6c0.1-0.1,0.1-0.2,0-0.4c0-0.1-0.1-0.2-0.2-0.3l-2.2-1.3c-0.1-0.1-0.2-0.1-0.4,0
	c-0.1,0-0.2,0.1-0.3,0.2L21.8,20.1L21.8,20.1z M21.1,21.3l0.7,0.4l-2.6,4.5l-0.7-0.4L21.1,21.3L21.1,21.3z M17.8,26.9l-0.2,2.5
	l1.2,0.7l2.1-1.4c-0.5-0.4-1.1-0.6-1.9-0.6C18.7,27.5,18.3,27.1,17.8,26.9L17.8,26.9z M21.7,29.6l-4.5,3l-0.9-0.5l0.4-5.4l0.3-0.5
	l2.7-4.7l1.1-1.9l0.3-0.6c0.2-0.4,0.6-0.7,1-0.8c0.4-0.1,0.8-0.1,1.2,0.2l2.2,1.3c0.4,0.2,0.6,0.6,0.8,1c0.1,0.4,0.1,0.8-0.2,1.2
	C24.7,24.4,23.2,27,21.7,29.6z"/>
<path class="st2" d="M3.7,13.2h32.6v-3c0,0-0.1-1.3-2.6-1.3H16.4c0,0-0.2-1.8-2.3-1.8H5.5c0,0-1.6,0.5-1.6,1.8
	C3.8,8.9,3.9,13.2,3.7,13.2z"/>
<rect x="4.4" y="15.3" class="st3" width="31.4" height="20.5"/>
</svg>
