<?xml version="1.0" encoding="utf-8"?>
<!-- Generator: Adobe Illustrator 23.0.6, SVG Export Plug-In . SVG Version: 6.00 Build 0)  -->
<svg version="1.1" id="Layer_1" xmlns="http://www.w3.org/2000/svg" xmlns:xlink="http://www.w3.org/1999/xlink" x="0px" y="0px" width="40px" height="40px"
	 viewBox="0 0 40 40" style="enable-background:new 0 0 40 40;" xml:space="preserve">
<style type="text/css">
	.st0{fill:none;stroke:#585C5E;stroke-width:1.5;stroke-miterlimit:10;}
	.st1{fill-rule:evenodd;clip-rule:evenodd;fill:#FF0000;}
</style>
<path class="st0" d="M14.8,4.9c3.8,0,6.9,3.1,6.9,6.9s-3.1,6.9-6.9,6.9s-6.9-3.1-6.9-6.9S11.1,4.9,14.8,4.9L14.8,4.9z M27,33.4
	c-7.6,3.1-15.6,3.2-24.1,0c-0.1-7,3.4-11.4,7.6-13l4.4,7.3l4.5-7.2C23.7,22.5,26.9,26.7,27,33.4z"/>
<path class="st1" d="M25.8,14.7h11.1h0.6v0.6v7.5v0.6h-0.6H25.8h-0.6v-0.6v-7.5v-0.6H25.8L25.8,14.7z M26.4,21.5l2.6-2.7l-2.6-2.2
	V21.5L26.4,21.5z M33.6,18.8l2.7,2.7v-5L33.6,18.8L33.6,18.8z M35.6,22.3l-2.8-2.8l-1.2,1l-0.3,0.3L31,20.5l-1.3-1.1L27,22.2
	L35.6,22.3L35.6,22.3z M27.3,16l4,3.5l4.1-3.5C35.4,16,27.3,16,27.3,16z"/>
<path class="st1" d="M32.4,8.4l-1.1,0.9c-1.6-1.7-4.2-1.8-6-0.4c-0.7,0.5-1.2,1.3-1.4,2.1l0.6,0.4c0.2-0.3,0.4-0.5,0.7-0.7
	c1.3-1,3.1-0.9,4.3,0.2L28,12l4.6,0.9L32.4,8.4L32.4,8.4z"/>
</svg>
