<?xml version="1.0" encoding="utf-8"?>
<!-- Generator: Adobe Illustrator 23.0.6, SVG Export Plug-In . SVG Version: 6.00 Build 0)  -->
<svg version="1.1" id="Layer_1" xmlns="http://www.w3.org/2000/svg" xmlns:xlink="http://www.w3.org/1999/xlink" x="0px" y="0px" width="40px" height="40px"
	 viewBox="0 0 40 40" style="enable-background:new 0 0 40 40;" xml:space="preserve">
<style type="text/css">
	.st0{fill-rule:evenodd;clip-rule:evenodd;fill:#FF0000;}
	.st1{fill:none;stroke:#585C5E;stroke-width:1.5;stroke-miterlimit:10;}
</style>
<path class="st0" d="M35.3,28.2v-3.7l-6.9-5.4l6.9-5.4V10L20.1,21.6L5.3,9.9H4.9v3.5l7.1,5.7l-7.1,5.7v3.4h0.4l9.1-7.2l5.6,4.2
	l5.8-4.2l9.2,7.1v0.1H35.3z"/>
<path class="st1" d="M7.4,6.1C3,5.9,3.1,8.9,3.1,8.9c0,7.1,0,13.5,0,20.6c0,0-0.5,2,4.2,2c4.1,0,13.9,0,13.9,0h-2.5
	c0,0,9.8,0,13.9,0c4.7,0,4.2-2,4.2-2c0-7.1,0-13.5,0-20.6c0,0,0.2-3-4.2-3L7.4,6.1z"/>
</svg>
