<?xml version="1.0" encoding="utf-8"?>
<!-- Generator: Adobe Illustrator 23.0.6, SVG Export Plug-In . SVG Version: 6.00 Build 0)  -->
<svg version="1.1" id="Layer_1" xmlns="http://www.w3.org/2000/svg" xmlns:xlink="http://www.w3.org/1999/xlink" x="0px" y="0px" width="40px" height="40px"
	 viewBox="0 0 40 40" style="enable-background:new 0 0 40 40;" xml:space="preserve">
<style type="text/css">
	.st0{fill-rule:evenodd;clip-rule:evenodd;fill:#FF0000;}
	.st1{fill-rule:evenodd;clip-rule:evenodd;fill:none;stroke:#585C5E;stroke-width:1.5;stroke-miterlimit:10;}
</style>
<path class="st0" d="M24.5,20v1.3h7.4V20H24.5L24.5,20z M16.7,20v1.3h6.6V20H16.7L16.7,20z M28.1,15.5v1.3h3.7v-1.3H28.1L28.1,15.5z
	 M25.1,15.5v1.3h1.5v-1.3H25.1L25.1,15.5z M20.8,15.5v1.3h3v-1.3H20.8L20.8,15.5z M16.7,15.5v1.3h3v-1.3H16.7L16.7,15.5z M16.7,11.3
	v1.3h15.2v-1.3H16.7L16.7,11.3z"/>
<path class="st1" d="M30.9,26.2h2.3c2.4,0,3.2-2.5,3.2-2.5V9.5c0-3.3-2.9-3.9-2.9-3.9H14.3c-3.6,0-3.9,3.1-3.9,3.1v14.5
	c0,0,0.2,2.8,3.5,2.8h10.1l5.9,7.3L30.9,26.2z"/>
<path class="st1" d="M7.3,11.7c0,0-2.4,0.7-2.6,2.7v13.8c0,0,0.6,3.2,3.5,3.2h14.9"/>
</svg>
