<?xml version="1.0" encoding="utf-8"?>
<!-- Generator: Adobe Illustrator 23.0.6, SVG Export Plug-In . SVG Version: 6.00 Build 0)  -->
<svg version="1.1" id="Layer_1" xmlns="http://www.w3.org/2000/svg" xmlns:xlink="http://www.w3.org/1999/xlink" x="0px" y="0px" width="40px" height="40px"
	 viewBox="0 0 40 40" style="enable-background:new 0 0 40 40;" xml:space="preserve">
<style type="text/css">
	.st0{fill:#585C5E;}
	.st1{fill:#FF0000;}
	.st2{fill:none;stroke:#585C5E;stroke-width:1.5;stroke-miterlimit:10;}
</style>
<path class="st0" d="M18.9,16.5c-0.3,0.6-0.5,1.2-0.5,2c0.3-0.6,0.8-1.1,1.4-1.4C19.5,16.9,19.2,16.7,18.9,16.5z M15.5,23.1
	c-3.2-3.2,0.3-6.4-2.3-11.5c1.5,2,7.4,3.9,8.3,5.7c-0.7-4.8-4.6-5.9-7.9-6.7c5.7,1.1,6.8-1.9,9.7-0.7c-2-2.2-6.7-2.4-10.1-0.1
	c2-2,5.5-2.3,6.9-4.7c-3.3-0.6-6.6,2-7.3,4.6c0.2-1.6-0.6-4.2,1-5.1c-2.5,0.1-3.5,3.6-2.3,5.3C9.1,8.8,7,11.4,7,13.3
	c1-1.2,2.6-2.1,4.2-2.6c-3,1.6-5,5.5-4.4,10c0.1-2.6,3-4.8,4.8-8.9C10.6,15.1,11,21,15.5,23.1z M33.6,18.6c0-3.4-2.8-5.3-5.8-5.7
	c1.5,0.1,3.6-0.3,4.6,1c-0.6-2.1-3-3.8-5.4-1.8c0.8-2.2-2.1-4.4-4.1-3.9c1.6,0.5,1.4,2.1,2.7,3.6c-0.6-0.5-1.4-1-2.4-1.3
	c-0.7-0.1-1.6,0-2.9,0.5c-0.3,0.1-0.5,0.2-0.8,0.3c0.3,0.2,0.6,0.4,0.9,0.7c1.2,0.2,2.8,0.7,4.7,0.5c-0.7,0.2-2,0.5-3.3,1.2
	c0.4,0.6,0.7,1.3,0.9,2.1c1.3-0.4,2.6-0.9,3.6-2c-0.6,2.9,2.4,7.4,1.8,10.4c1.5-3.3,0.9-8.3-0.7-10.8C29.9,17,32.3,17,33.6,18.6z
	 M14.7,30.8H6.9v0.8H14C14.2,31.3,14.5,31.1,14.7,30.8z M25.8,30.8c0.3,0.3,0.5,0.5,0.7,0.8h7.1v-0.8H25.8z M15.5,16.7
	c0-0.7,0-1.4,0-2.1c0.3,0.2,0.7,0.4,1,0.6c1.6,3.4,3,7.8,3.3,13.3c-0.5,0-1,0.1-1.5,0.2C17.9,23.8,16.8,19.8,15.5,16.7z M23.2,17
	c-1.1,2.6-2.3,6.4-2.7,11.5c0.5,0,1,0.1,1.5,0.2c0.5-5.6,1.8-9.5,3-12c0-0.1-0.1-0.3-0.1-0.4C24.4,16.6,23.8,16.8,23.2,17z
	 M26.9,35.8c-0.3-3.4-3.1-6.2-6.6-6.2s-6.4,2.7-6.6,6.2H26.9z"/>
<path class="st1" d="M15,26.6c0,1.7-1.4,3.2-3.2,3.2s-3.2-1.4-3.2-3.2c0-1.7,1.4-3.2,3.2-3.2S15,24.8,15,26.6z"/>
<rect x="3.6" y="3.2" class="st2" width="34" height="33.5"/>
</svg>
