<?xml version="1.0" encoding="utf-8"?>
<!-- Generator: Adobe Illustrator 23.0.6, SVG Export Plug-In . SVG Version: 6.00 Build 0)  -->
<svg version="1.1" id="Layer_1" xmlns="http://www.w3.org/2000/svg" xmlns:xlink="http://www.w3.org/1999/xlink" x="0px" y="0px" width="40px" height="40px"
	 viewBox="0 0 40 40" style="enable-background:new 0 0 40 40;" xml:space="preserve">
<style type="text/css">
	.st0{fill:#FF0000;}
	.st1{fill-rule:evenodd;clip-rule:evenodd;fill:#585C5E;}
	.st2{fill-rule:evenodd;clip-rule:evenodd;fill:none;stroke:#585C5E;stroke-width:1.455;stroke-miterlimit:10;}
</style>
<path class="st0" d="M20.8,17.1c1.9,0,3.4,1.5,3.4,3.4s-1.5,3.4-3.4,3.4c-1.9,0-3.4-1.5-3.4-3.4S19,17.1,20.8,17.1L20.8,17.1z
	 M27,31.3c-3.8,1.5-7.8,1.6-12.1,0c-0.1-3.5,1.7-5.7,3.8-6.5l2.2,3.7l2.3-3.6C25.3,25.8,26.9,27.9,27,31.3z"/>
<path id="centimeter" class="st1" d="M19.9,15.4h-3.7h-4.9l0,0c-4.7,0-8.5-1.8-8.5-5.5C2.8,6.1,6.7,3,11.5,3c4.6,0,8.2,2.9,8.5,6.6
	l0,0v0.2v0.1V10v4.6L19.9,15.4z M11.6,7.4c-1.7,0-3.1,1.1-3.1,2.4s1.3,2.4,3.1,2.4s3.1-1.1,3.1-2.4S13.2,7.4,11.6,7.4z"/>
<path class="st2" d="M18.8,14.7h17.9v20.5H13.6c0,0-9.8,0.5-9.8-9.1v-9.3"/>
</svg>
