<?xml version="1.0" encoding="utf-8"?>
<!-- Generator: Adobe Illustrator 23.0.6, SVG Export Plug-In . SVG Version: 6.00 Build 0)  -->
<svg version="1.1" id="Layer_1" xmlns="http://www.w3.org/2000/svg" xmlns:xlink="http://www.w3.org/1999/xlink" x="0px" y="0px" width="40px" height="40px"
	 viewBox="0 0 40 40" style="enable-background:new 0 0 40 40;" xml:space="preserve">
<style type="text/css">
	.st0{fill:#585C5E;}
	.st1{fill:none;stroke:#585C5E;stroke-width:1.5719;stroke-miterlimit:10;}
	.st2{fill-rule:evenodd;clip-rule:evenodd;fill:#FF0000;}
</style>
<path class="st0" d="M11.9,14.8c2.6,0,4.7,2.1,4.7,4.7s-2.1,4.7-4.7,4.7s-4.7-2.1-4.7-4.7S9.4,14.8,11.9,14.8L11.9,14.8z M20.3,34.3
	c-5.2,2.1-10.7,2.2-16.5,0c-0.1-4.8,2.3-7.8,5.2-8.9l3,5l3.1-4.9C18,26.8,20.2,29.7,20.3,34.3z"/>
<polyline class="st1" points="9.7,13.1 9.7,4.1 36.4,4.1 36.4,31.3 22.7,31.3 "/>
<path class="st2" d="M33.6,13.3l-3.4,2.5l-3.4,2.5l-0.3-2c-2.9,1-5.1,3-5.8,5.8l-0.8,0.1c-0.4-4.5,1.5-8.5,6-10.3l-0.3-1.8l4,1.5
	L33.6,13.3z"/>
</svg>
