<?xml version="1.0" encoding="utf-8"?>
<!-- Generator: Adobe Illustrator 23.0.6, SVG Export Plug-In . SVG Version: 6.00 Build 0)  -->
<svg version="1.1" id="Layer_1" xmlns="http://www.w3.org/2000/svg" xmlns:xlink="http://www.w3.org/1999/xlink" x="0px" y="0px" width="40px" height="40px"
	 viewBox="0 0 40 40" style="enable-background:new 0 0 40 40;" xml:space="preserve">
<style type="text/css">
	.st0{fill:#585C5E;}
	.st1{fill:#FF0000;}
</style>
<g>
	<g>
		<path class="st0" d="M10.2,30.1c0,0.6-0.5,1.1-1.1,1.1H6.7c-0.6,0-1.1-0.5-1.1-1.1v-2.3c0-0.6,0.5-1.1,1.1-1.1H9
			c0.6,0,1.1,0.5,1.1,1.1L10.2,30.1L10.2,30.1z M18.3,30.1c0,0.6-0.5,1.1-1.1,1.1h-2.3c-0.6,0-1.1-0.5-1.1-1.1v-2.3
			c0-0.6,0.5-1.1,1.1-1.1h2.3c0.6,0,1.1,0.5,1.1,1.1V30.1z M26.5,30.1c0,0.6-0.5,1.1-1.1,1.1H23c-0.6,0-1.1-0.5-1.1-1.1v-2.3
			c0-0.6,0.5-1.1,1.1-1.1h2.3c0.6,0,1.1,0.5,1.1,1.1C26.5,27.8,26.5,30.1,26.5,30.1z"/>
	</g>
</g>
<path class="st0" d="M33.9,30.1c0,0.6-0.5,1.1-1.1,1.1h-2.3c-0.6,0-1.1-0.5-1.1-1.1v-2.3c0-0.6,0.5-1.1,1.1-1.1h2.3
	c0.6,0,1.1,0.5,1.1,1.1C33.9,27.8,33.9,30.1,33.9,30.1z"/>
<g>
	<g>
		<path class="st0" d="M26.5,13.7c0,0.6-0.5,1.1-1.1,1.1H23c-0.6,0-1.1-0.5-1.1-1.1v-2.3c0-0.6,0.5-1.1,1.1-1.1h2.3
			c0.6,0,1.1,0.5,1.1,1.1C26.5,11.4,26.5,13.7,26.5,13.7z"/>
	</g>
</g>
<path class="st0" d="M33.9,13.7c0,0.6-0.5,1.1-1.1,1.1h-2.3c-0.6,0-1.1-0.5-1.1-1.1v-2.3c0-0.6,0.5-1.1,1.1-1.1h2.3
	c0.6,0,1.1,0.5,1.1,1.1V13.7z"/>
<path class="st0" d="M34.2,5.5H18.3l0,1.5h15.9c1,0,1.8,0.8,1.8,1.8v23.5c0,1-0.8,1.8-1.8,1.8H5.1c-1,0-1.8-0.8-1.8-1.8v-8.6H1.9
	v8.6c0,1.8,1.4,3.2,3.2,3.2h29.1c1.8,0,3.2-1.4,3.2-3.2V8.8C37.5,7,36,5.5,34.2,5.5z"/>
<path class="st1" d="M10.4,2.8c2.4,0,4.5,2,4.5,4.5s-2,4.5-4.5,4.5S6,9.6,6,7.2S8.1,2.8,10.4,2.8L10.4,2.8z M18.3,21.1
	c-4.9,2-10.1,2-15.5,0c-0.1-4.5,2.1-7.3,4.9-8.4l2.9,4.7l2.9-4.6C16.2,14,18.2,16.8,18.3,21.1z"/>
</svg>
