<?xml version="1.0" encoding="utf-8"?>
<!-- Generator: Adobe Illustrator 23.0.6, SVG Export Plug-In . SVG Version: 6.00 Build 0)  -->
<svg version="1.1" id="Layer_1" xmlns="http://www.w3.org/2000/svg" xmlns:xlink="http://www.w3.org/1999/xlink" x="0px" y="0px" width="40px" height="40px"
	 viewBox="0 0 40 40" style="enable-background:new 0 0 40 40;" xml:space="preserve">
<style type="text/css">
	.st0{fill-rule:evenodd;clip-rule:evenodd;fill:#FF0000;}
	.st1{fill:none;stroke:#585C5E;stroke-width:1.5;stroke-miterlimit:10;}
</style>
<path class="st0" d="M10.6,21.3v2h20.2v-2H10.6L10.6,21.3z M10.6,16.2v2h20.2v-2H10.6L10.6,16.2z M10.6,11.6v2h20.2v-2H10.6
	L10.6,11.6z"/>
<path class="st1" d="M4.4,18.2l0.1-9.7c0,0,0.3-3.2,4.6-3.2h23.6c0,0,4.2-0.1,4.2,4.2v16.1c0,0-0.3,3.6-4.3,3.6h-4.2l-4.8,7.4
	l-0.5-7.2H7.9c0,0-3.6-0.3-3.6-4.5L4.4,18.2z"/>
</svg>
