<?xml version="1.0" encoding="utf-8"?>
<!-- Generator: Adobe Illustrator 23.0.6, SVG Export Plug-In . SVG Version: 6.00 Build 0)  -->
<svg version="1.1" id="Layer_1" xmlns="http://www.w3.org/2000/svg" xmlns:xlink="http://www.w3.org/1999/xlink" x="0px" y="0px" width="40px" height="40px"
	 viewBox="0 0 40 40" style="enable-background:new 0 0 40 40;" xml:space="preserve">
<style type="text/css">
	.st0{fill:#585C5E;}
	.st1{fill:#FF0000;}
	.st2{fill:none;stroke:#585C5E;stroke-width:1.5;stroke-miterlimit:10;}
</style>
<g>
	<g>
		<path class="st0" d="M9.5,12.3c-1-0.8-1.7-2-1.7-3.4l0,0c0-2.2,1.7-4.1,3.8-4.1l0,0c1.9,0,3.5,1.6,3.8,3.5l0,0
			c0.1,0.4-0.2,0.9-0.8,1l0,0c-0.4,0.1-0.9-0.2-1-0.8l0,0c-0.2-1.1-1-1.9-2-1.9l0,0c-0.6,0-1,0.2-1.5,0.7l0,0
			c-0.3,0.3-0.6,1-0.6,1.7l0,0c0,0.9,0.4,1.6,0.9,2l0,0l0,0c0.4,0.3,0.4,0.9,0.2,1.2l0,0c-0.2,0.2-0.4,0.3-0.7,0.3l0,0
			C9.8,12.5,9.7,12.4,9.5,12.3L9.5,12.3z"/>
	</g>
	<g>
		<path class="st0" d="M18,12.3c-1-0.8-1.7-2-1.7-3.4l0,0c0-2.2,1.7-4.1,3.8-4.1l0,0c1.9,0,3.5,1.6,3.8,3.5l0,0
			c0.1,0.4-0.2,0.9-0.8,1l0,0c-0.4,0.1-0.9-0.2-1-0.8l0,0c-0.2-1.1-1-1.9-2-1.9l0,0c-0.6,0-1,0.2-1.5,0.7l0,0
			c-0.3,0.4-0.7,1-0.7,1.7l0,0c0,0.9,0.4,1.6,0.9,2l0,0c0.4,0.3,0.4,0.9,0.2,1.2l0,0c-0.2,0.2-0.4,0.3-0.7,0.3l0,0
			C18.3,12.5,18.1,12.4,18,12.3L18,12.3z"/>
	</g>
	<g>
		<path class="st0" d="M26.4,12.3c-1-0.8-1.7-2-1.7-3.4l0,0c0-2.2,1.7-4.1,3.8-4.1l0,0c1.9,0,3.5,1.6,3.8,3.5l0,0
			c0.1,0.4-0.2,0.9-0.8,1l0,0c-0.4,0.1-0.9-0.2-1-0.8l0,0c-0.2-1.1-1-1.9-2-1.9l0,0c-0.6,0-1,0.2-1.5,0.7l0,0
			c-0.3,0.4-0.7,1-0.7,1.7l0,0c0,0.9,0.4,1.6,0.9,2l0,0c0.4,0.3,0.4,0.9,0.2,1.2l0,0c-0.2,0.2-0.4,0.3-0.7,0.3l0,0
			C26.7,12.5,26.6,12.4,26.4,12.3L26.4,12.3z"/>
	</g>
</g>
<g>
	<path class="st1" d="M24.6,28.8l9.5-13.2c0.3-0.4,0.1-0.4-0.1-0.1l-9,7.3c-0.4,0.3-1,0.4-1.4,0.3l-5.1-2.1c-0.4-0.1-0.5,0-0.3,0.4
		l5.5,7.5C24,29.2,24.4,29.2,24.6,28.8z"/>
</g>
<path class="st2" d="M20.4,28H9.5l0.3-12.2h17"/>
<path class="st2" d="M33.4,34H6.9c-1.7,0-3.1-1.4-3.1-3.1V12c0-1.7,1.4-3.1,3.1-3.1h26.5c1.7,0,3.1,1.4,3.1,3.1v18.8
	C36.5,32.6,35.1,34,33.4,34z"/>
</svg>
