<?xml version="1.0" encoding="utf-8"?>
<!-- Generator: Adobe Illustrator 23.0.6, SVG Export Plug-In . SVG Version: 6.00 Build 0)  -->
<svg version="1.1" id="Layer_1" xmlns="http://www.w3.org/2000/svg" xmlns:xlink="http://www.w3.org/1999/xlink" x="0px" y="0px" width="40px" height="40px"
	 viewBox="0 0 40 40" style="enable-background:new 0 0 40 40;" xml:space="preserve">
<style type="text/css">
	.st0{fill:#585C5E;}
	.st1{fill-rule:evenodd;clip-rule:evenodd;fill:#FF0000;}
</style>
<g>
	<path class="st0" d="M32.8,32.5c-0.1-6.4-2.9-11.2-8-13.6l-0.6-0.3l-4.2,6.7l-4.1-6.8l-0.6,0.2c-4,1.5-8.2,5.9-8.1,13.7l0,0.5
		l0.5,0.2c1.8,0.7,3.5,1.2,5.3,1.6v-1.5c-1.4-0.3-2.8-0.7-4.3-1.3c0.1-5.5,2.5-9.7,6.5-11.5l4,6.6h1.5l4-6.4c4,2.1,6.3,6.2,6.6,11.4
		c-1.3,0.5-2.7,0.9-4,1.3v1.5c1.7-0.4,3.4-0.9,5.1-1.6l0.5-0.2L32.8,32.5z"/>
	<path class="st0" d="M19.8,18.5c4.2,0,7.7-3.4,7.7-7.6S24,3.3,19.8,3.3c-4.1,0-7.6,3.5-7.6,7.6C12.1,15.1,15.6,18.5,19.8,18.5z
		 M19.8,4.8c3.4,0,6.2,2.8,6.2,6.1S23.2,17,19.8,17c-3.4,0-6.1-2.8-6.1-6.1C13.6,7.6,16.5,4.8,19.8,4.8z"/>
</g>
<path class="st1" d="M14.4,27.6h11.1h0.6v0.6v7.5v0.6h-0.6H14.4h-0.6v-0.6v-7.5v-0.6H14.4L14.4,27.6z M15,34.4l2.6-2.7L15,29.5V34.4
	L15,34.4z M22.2,31.7l2.7,2.7v-5L22.2,31.7L22.2,31.7z M24.2,35.2l-2.8-2.8l-1.2,1l-0.3,0.3l-0.3-0.3l-1.3-1.1l-2.7,2.8L24.2,35.2
	L24.2,35.2z M15.9,28.9l4,3.5l4.1-3.5C24,28.9,15.9,28.9,15.9,28.9z"/>
</svg>
