<?xml version="1.0" encoding="utf-8"?>
<!-- Generator: Adobe Illustrator 23.0.6, SVG Export Plug-In . SVG Version: 6.00 Build 0)  -->
<svg version="1.1" id="Layer_1" xmlns="http://www.w3.org/2000/svg" xmlns:xlink="http://www.w3.org/1999/xlink" x="0px" y="0px" width="40px" height="40px"
	 viewBox="0 0 40 40" style="enable-background:new 0 0 40 40;" xml:space="preserve">
<style type="text/css">
	.st0{fill-rule:evenodd;clip-rule:evenodd;fill:#FF0000;}
	.st1{fill-rule:evenodd;clip-rule:evenodd;fill:#585C5E;}
	.st2{fill:#585C5E;}
</style>
<path class="st0" d="M13.8,15.6L13.8,15.6c-0.1-0.1-0.3-0.2-0.5-0.2h-4c-0.2,0-0.4,0.1-0.5,0.2c-0.1,0.1-0.2,0.2-0.2,0.4v3.2
	c0,0.2,0.1,0.3,0.2,0.4l0,0c0.1,0.1,0.3,0.2,0.5,0.2h4c0.2,0,0.4-0.1,0.5-0.2s0.2-0.2,0.2-0.4V16C14,15.8,14,15.7,13.8,15.6z
	 M13.6,16.4l-2,2.8c0,0.1-0.1,0.1-0.2,0.2c-0.3,0.2-0.6,0.1-0.8-0.1l-1.5-1.7C8.9,17.4,9,17.1,9.3,17c0.3-0.2,0.6-0.1,0.8,0.1l1,1.1
	l1.5-2.2c0.2-0.2,0.5-0.3,0.8-0.2C13.6,15.9,13.7,16.2,13.6,16.4z"/>
<path class="st0" d="M13.8,21.2L13.8,21.2c-0.1-0.1-0.3-0.2-0.5-0.2h-4c-0.2,0-0.4,0.1-0.5,0.2s-0.2,0.2-0.2,0.4v3.2
	c0,0.2,0.1,0.3,0.2,0.4l0,0c0.1,0.1,0.3,0.2,0.5,0.2h4c0.2,0,0.4-0.1,0.5-0.2C14,25.1,14,25,14,24.8v-3.2C14,21.5,14,21.3,13.8,21.2
	z M13.6,22.1l-2,2.8c0,0.1-0.1,0.1-0.2,0.2c-0.3,0.2-0.6,0.1-0.8-0.1l-1.5-1.7c-0.2-0.2-0.1-0.5,0.1-0.6c0.3-0.2,0.6-0.1,0.8,0.1
	l1,1.1l1.5-2.2c0.2-0.2,0.5-0.3,0.8-0.2C13.6,21.6,13.7,21.8,13.6,22.1z"/>
<path class="st0" d="M37.1,26.7L37.1,26.7c-0.3-0.3-0.6-0.4-1-0.4h-8c-0.4,0-0.7,0.2-1,0.4c-0.3,0.3-0.4,0.6-0.4,1v7.8
	c0,0.4,0.2,0.7,0.4,1l0,0c0.3,0.3,0.6,0.4,1,0.4h8c0.4,0,0.7-0.2,1-0.4c0.3-0.3,0.4-0.6,0.4-1v-7.8C37.5,27.3,37.4,26.9,37.1,26.7z
	 M36.6,28.8l-3.9,7c-0.1,0.2-0.2,0.3-0.4,0.4c-0.5,0.4-1.2,0.3-1.6-0.3l-3-4.1c-0.4-0.5-0.3-1.2,0.3-1.6c0.5-0.4,1.2-0.3,1.6,0.3
	l2,2.7l3-5.4c0.3-0.5,1-0.7,1.6-0.5C36.7,27.5,36.9,28.2,36.6,28.8z"/>
<polygon class="st1" points="15.5,22.7 15.5,23.9 30,23.9 30,22.7 "/>
<path class="st2" d="M15.4,18.3h14.5v-1.2H15.4V18.3z M15.4,13.1h14.5v-1.2H15.4V13.1z M15.4,29.3h8.7v-1.2h-8.7V29.3z M15.4,23.9
	h10.2c0.7-0.6,1.6-1,2.5-1.2H15.4V23.9z M33.1,3.3h-1.5V1.7H9.1v1.6H6.8C5,3.3,3.7,4.6,3.7,6.4v27.5c0,1.7,1.4,3.1,3.1,3.1h18.4
	v-1.5H6.8c-0.9,0-1.7-0.8-1.7-1.7V6.4c0-0.9,0.7-1.7,1.7-1.7h2.3c0,0.6,0,1.3,0,1.3v2.3h22.5V4.7h1.5c0.9,0,1.7,0.8,1.7,1.7v17.8
	h1.5V6.4C36.2,4.7,34.8,3.3,33.1,3.3z M29.3,7.3h-2.2V2.8h2.2V7.3z M8.8,30.8h5.3v-4.2H8.8V30.8z M10.1,27.6h2.8v2.2h-2.8V27.6z
	 M14.1,10.4H8.8v4.2h5.3V10.4z M12.9,13.6h-2.8v-2.2h2.8V13.6z"/>
</svg>
