<?xml version="1.0" encoding="utf-8"?>
<!-- Generator: Adobe Illustrator 23.0.6, SVG Export Plug-In . SVG Version: 6.00 Build 0)  -->
<svg version="1.1" id="Layer_1" xmlns="http://www.w3.org/2000/svg" xmlns:xlink="http://www.w3.org/1999/xlink" x="0px" y="0px" width="40px" height="40px"
	 viewBox="0 0 40 40" style="enable-background:new 0 0 40 40;" xml:space="preserve">
<style type="text/css">
	.st0{fill:#585C5E;}
	.st1{fill:#FF0000;}
</style>
<path class="st0" d="M28.5,10.7V4.5c0-1-0.8-1.8-1.8-1.8H9.5C9,2.8,8.5,3,8.1,3.4L5.3,6.3C4.9,6.6,4.7,7.1,4.7,7.6
	c0,0.5,0.2,1,0.5,1.3l2.9,2.9c0.3,0.4,0.8,0.6,1.3,0.6h17.2C27.7,12.5,28.5,11.7,28.5,10.7z M9.2,10.9l-3-3c0,0-0.1-0.2-0.1-0.3
	s0-0.2,0.1-0.3l2.9-2.9V4.3c0.1-0.1,0.2-0.1,0.3-0.1h17.2c0.2,0,0.3,0.2,0.3,0.3v6.1c0,0.2-0.2,0.3-0.3,0.3H9.5
	C9.4,11,9.3,11,9.2,10.9z M38.5,19.2l-2.9-2.9c-0.3-0.4-0.8-0.6-1.3-0.6h-11v-1.8h-2.8v1.8H17c-1,0-1.8,0.8-1.8,1.8v6.1
	c0,1,0.8,1.8,1.8,1.8h17.2c0.5,0,1-0.2,1.3-0.6l2.9-2.9C39.2,21.1,39.2,19.9,38.5,19.2z M37.5,20.8l-2.9,2.9v0.1
	c0,0-0.1,0.1-0.3,0.1H17c-0.2,0-0.3-0.2-0.3-0.3v-6.1c0-0.2,0.2-0.3,0.3-0.3h17.2c0.1,0,0.2,0,0.3,0.1l3,3
	C37.7,20.4,37.7,20.6,37.5,20.8z M20.4,26.8h2.8v11h-2.8V26.8z"/>
<g>
	<path class="st1" d="M11.9,21.1L11.9,21.1L11.9,21.1C11.9,21,11.9,21,11.9,21.1c0-0.1,0-0.1,0-0.1l-0.1-2.4l-7.9,0.2L4,21.2l0,0
		c0.1,0.6,0.6,1.2,1.5,1.5c0.3,0.7,0.6,1.9,0,3l0,0c-0.8,0.4-1.3,1-1.3,1.6l0,0l0.1,2.6l7.9-0.2L12,27.2l0,0c0-0.6-0.5-1.1-1.2-1.4
		c0,0,0-0.1-0.1-0.1c-0.8-1.1-0.4-2.4-0.1-3.1C11.4,22.2,11.8,21.7,11.9,21.1z"/>
	<polygon class="st0" points="6.4,31.3 9.7,31.2 8.1,37.6 	"/>
</g>
<g>
	<path class="st0" d="M18.9,22.6v-3.8h-1.4v-0.5h3.3v0.5h-1.4v3.8H18.9z"/>
	<path class="st0" d="M22.7,22.2c-0.2,0.2-0.4,0.3-0.5,0.4c-0.2,0.1-0.4,0.1-0.6,0.1c-0.3,0-0.6-0.1-0.8-0.2s-0.3-0.4-0.3-0.6
		c0-0.2,0-0.3,0.1-0.4c0.1-0.1,0.2-0.2,0.3-0.3c0.1-0.1,0.2-0.1,0.4-0.2c0.1,0,0.2-0.1,0.5-0.1c0.4-0.1,0.7-0.1,0.9-0.2
		c0-0.1,0-0.1,0-0.1c0-0.2,0-0.4-0.1-0.5c-0.1-0.1-0.3-0.2-0.6-0.2c-0.2,0-0.4,0-0.5,0.1c-0.1,0.1-0.2,0.2-0.3,0.5l-0.5-0.1
		c0-0.2,0.1-0.4,0.2-0.5c0.1-0.1,0.3-0.2,0.5-0.3c0.2-0.1,0.4-0.1,0.7-0.1s0.5,0,0.6,0.1c0.2,0.1,0.3,0.1,0.4,0.2
		c0.1,0.1,0.1,0.2,0.2,0.4c0,0.1,0,0.3,0,0.5v0.7c0,0.5,0,0.8,0,0.9c0,0.1,0.1,0.3,0.1,0.4h-0.5C22.7,22.5,22.7,22.3,22.7,22.2z
		 M22.6,21c-0.2,0.1-0.5,0.1-0.8,0.2c-0.2,0-0.4,0.1-0.4,0.1c-0.1,0-0.2,0.1-0.2,0.2c0,0.1-0.1,0.2-0.1,0.3c0,0.1,0.1,0.3,0.2,0.4
		c0.1,0.1,0.3,0.1,0.5,0.1s0.4,0,0.5-0.1c0.2-0.1,0.3-0.2,0.3-0.4c0.1-0.1,0.1-0.3,0.1-0.5V21z"/>
	<path class="st0" d="M23.9,18.9v-0.6h0.5v0.6H23.9z M23.9,22.6v-3.1h0.5v3.1H23.9z"/>
	<path class="st0" d="M25.8,22.6l-0.9-3.1h0.5l0.5,1.8l0.2,0.7c0,0,0.1-0.2,0.2-0.6l0.5-1.8h0.5l0.5,1.8l0.1,0.6l0.2-0.6l0.5-1.8H29
		L28,22.6h-0.5L27,20.7l-0.1-0.5l-0.6,2.4H25.8z"/>
	<path class="st0" d="M31.4,22.2c-0.2,0.2-0.4,0.3-0.5,0.4s-0.4,0.1-0.6,0.1c-0.3,0-0.6-0.1-0.8-0.2s-0.3-0.4-0.3-0.6
		c0-0.2,0-0.3,0.1-0.4c0.1-0.1,0.2-0.2,0.3-0.3c0.1-0.1,0.2-0.1,0.4-0.2c0.1,0,0.3-0.1,0.5-0.1c0.4-0.1,0.7-0.1,0.9-0.2
		c0-0.1,0-0.1,0-0.1c0-0.2,0-0.4-0.1-0.5c-0.1-0.1-0.3-0.2-0.6-0.2c-0.2,0-0.4,0-0.5,0.1c-0.1,0.1-0.2,0.2-0.3,0.5l-0.5-0.1
		c0-0.2,0.1-0.4,0.2-0.5c0.1-0.1,0.3-0.2,0.5-0.3c0.2-0.1,0.4-0.1,0.7-0.1c0.3,0,0.5,0,0.6,0.1c0.2,0.1,0.3,0.1,0.4,0.2
		c0.1,0.1,0.1,0.2,0.2,0.4c0,0.1,0,0.3,0,0.5v0.7c0,0.5,0,0.8,0,0.9c0,0.1,0.1,0.3,0.1,0.4h-0.5C31.4,22.5,31.4,22.3,31.4,22.2z
		 M31.3,21c-0.2,0.1-0.5,0.1-0.8,0.2c-0.2,0-0.4,0.1-0.4,0.1s-0.2,0.1-0.2,0.2c0,0.1-0.1,0.2-0.1,0.3c0,0.1,0.1,0.3,0.2,0.4
		s0.3,0.1,0.5,0.1c0.2,0,0.4,0,0.5-0.1c0.2-0.1,0.3-0.2,0.3-0.4c0.1-0.1,0.1-0.3,0.1-0.5V21z"/>
	<path class="st0" d="M32.6,22.6v-3.1h0.5v0.4c0.2-0.3,0.5-0.5,1-0.5c0.2,0,0.3,0,0.5,0.1c0.2,0.1,0.3,0.2,0.3,0.3
		c0.1,0.1,0.1,0.2,0.2,0.4c0,0.1,0,0.3,0,0.5v1.9h-0.5v-1.9c0-0.2,0-0.4-0.1-0.5c0-0.1-0.1-0.2-0.2-0.3c-0.1-0.1-0.2-0.1-0.4-0.1
		c-0.2,0-0.4,0.1-0.6,0.2c-0.2,0.1-0.2,0.4-0.2,0.8v1.7H32.6z"/>
</g>
</svg>
