<?xml version="1.0" encoding="utf-8"?>
<!-- Generator: Adobe Illustrator 23.0.6, SVG Export Plug-In . SVG Version: 6.00 Build 0)  -->
<svg version="1.1" id="Layer_1" xmlns="http://www.w3.org/2000/svg" xmlns:xlink="http://www.w3.org/1999/xlink" x="0px" y="0px" width="40px" height="40px"
	 viewBox="0 0 40 40" style="enable-background:new 0 0 40 40;" xml:space="preserve">
<style type="text/css">
	.st0{fill:#585C5E;}
	.st1{fill-rule:evenodd;clip-rule:evenodd;fill:#FF0000;}
</style>
<g>
	<circle class="st0" cx="21.6" cy="11.1" r="4.9"/>
	<path class="st0" d="M24.9,17.3l-3.2,5.1l-3.1-5.2c-0.9,0.4-1.8,0.9-2.6,1.6c2.4,1.6,4.7,4.3,4.7,9.3c3.4,0.2,6.6-0.4,9.7-1.6
		C30.2,21.7,27.9,18.7,24.9,17.3z"/>
</g>
<path class="st0" d="M31.7,1.5H7.9c-2.8,0-5,2.2-5,5v25.2h1.5V6.6c0-2,1.6-3.5,3.5-3.5h23.8c2,0,3.5,1.6,3.5,3.5l0,25.9
	c0,0.9-0.3,1.8-0.9,2.4c-0.7,0.7-1.6,1.1-2.6,1.1H9.9v1.5h21.8c1.4,0,2.8-0.6,3.7-1.6c0.9-1,1.4-2.2,1.3-3.5V6.6
	C36.8,3.8,34.5,1.5,31.7,1.5z"/>
<path class="st1" d="M11.7,23.7c-1,0.2-2,0.6-2.7,1.5s-1,2-0.8,2.9c0.1,1.1,0.6,2.1,1.5,2.7c0.9,0.7,2,1,2.9,0.8
	c1.1-0.1,2.1-0.6,2.7-1.5c0.7-0.9,1-2,0.8-2.9c-0.1-1.1-0.6-2.1-1.5-2.7C13.8,23.8,12.8,23.6,11.7,23.7L11.7,23.7z M16,22.9
	c-1.3-1.1-2.9-1.4-4.5-1.2c-1.5,0.2-3,1-4.1,2.3S6,26.9,6.2,28.5c0.2,1.2,0.6,2.4,1.5,3.4c-0.4,0-0.8,0.2-1.1,0.5l-2,2.5
	c-0.5,0.6-0.4,1.6,0.3,2.1l0,0c0.6,0.5,1.6,0.4,2.1-0.3l2.1-2.5c0.3-0.4,0.4-0.7,0.3-1.1c1.2,0.6,2.4,0.8,3.7,0.7
	c1.5-0.2,3-1,4.1-2.3c1.1-1.3,1.4-2.9,1.2-4.5C18.1,25.4,17.3,23.9,16,22.9L16,22.9z M15.1,28c0.4-2.4-2.4-4.5-4.6-3.1
	C12.8,25.4,14.3,26.2,15.1,28L15.1,28z"/>
</svg>
