<?xml version="1.0" encoding="utf-8"?>
<!-- Generator: Adobe Illustrator 23.0.6, SVG Export Plug-In . SVG Version: 6.00 Build 0)  -->
<svg version="1.1" id="Layer_1" xmlns="http://www.w3.org/2000/svg" xmlns:xlink="http://www.w3.org/1999/xlink" x="0px" y="0px" width="40px" height="40px"
	 viewBox="0 0 40 40" style="enable-background:new 0 0 40 40;" xml:space="preserve">
<style type="text/css">
	.st0{fill:#585C5E;}
	.st1{fill:#FF0000;}
	.st2{fill:#FFFFFF;stroke:#FFFFFF;stroke-miterlimit:10;}
</style>
<path class="st0" d="M36,4.5h-8.1c-0.8,0-1.4,0.6-1.4,1.3v0.7h-1c-1,0-2,0.8-2,1.8v0.1H7.8C7,8.4,6.5,8.9,6.5,9.7v0.6H5.3
	c-1,0-1.8,0.8-1.8,1.8v22.6h1V12.1c0-0.4,0.3-0.8,0.8-0.8h1.1h17.9v-3c0-0.4,0.4-0.8,1-0.8h8.1c0.6,0,1,0.4,1,0.8v24.6
	c0,0.4-0.3,0.8-0.8,0.8H3.5v1h30.2c1,0,1.8-0.8,1.8-1.8v-1.1h0.6c0.8,0,1.3-0.6,1.3-1.3V5.8C37.5,5,36.9,4.5,36,4.5z"/>
<path class="st1" d="M15.2,19.6c0-1.4-1.1-2.6-2.5-2.6s-2.5,1.2-2.5,2.6s1.1,2.6,2.5,2.6S15.2,21,15.2,19.6z M32.1,31.6
	c0-5.2-2.7-9.4-5.9-9.4c-0.7,0-1.3,0.2-1.9,0.5c-1.1-2.4-2.8-3.9-4.8-3.9s-3.8,1.6-4.8,3.9c-0.6-0.3-1.2-0.5-1.9-0.5
	c-3.3,0-5.9,4.2-5.9,9.4h11.9c0-1.2-0.1-2.4-0.4-3.5h2.4c-0.3,1.1-0.4,2.2-0.4,3.5H32.1z M28.6,19.6c0-1.4-1.1-2.6-2.5-2.6
	s-2.5,1.2-2.5,2.6s1.1,2.6,2.5,2.6S28.6,21,28.6,19.6z M21.9,16.1c0-1.4-1.1-2.6-2.5-2.6s-2.5,1.2-2.5,2.6c0,1.4,1.1,2.6,2.5,2.6
	S21.9,17.6,21.9,16.1z"/>
<path class="st2" d="M14.8,22.2c0,0,2.3,1.1,4.2,6.4"/>
<path class="st2" d="M24.2,22.2c0,0-2.3,1.1-4.2,6.4"/>
</svg>
