<?xml version="1.0" encoding="utf-8"?>
<!-- Generator: Adobe Illustrator 23.0.6, SVG Export Plug-In . SVG Version: 6.00 Build 0)  -->
<svg version="1.1" id="Layer_1" xmlns="http://www.w3.org/2000/svg" xmlns:xlink="http://www.w3.org/1999/xlink" x="0px" y="0px" width="40px" height="40px"
	 viewBox="0 0 40 40" style="enable-background:new 0 0 40 40;" xml:space="preserve">
<style type="text/css">
	.st0{fill:none;stroke:#585C5E;stroke-width:1.5;stroke-miterlimit:10;}
	.st1{fill-rule:evenodd;clip-rule:evenodd;fill:#FFFFFF;}
	.st2{fill-rule:evenodd;clip-rule:evenodd;fill:#FF0000;}
</style>
<path class="st0" d="M20,4.1c3.7,0,6.8,3.1,6.8,6.8s-3.1,6.8-6.8,6.8s-6.8-3.1-6.8-6.8S16.4,4.1,20,4.1L20,4.1z M32.1,32.2
	c-7.5,3.1-15.4,3.2-23.8,0c-0.1-6.9,3.4-11.2,7.5-12.8l4.3,7.2l4.4-7.1C28.8,21.5,32,25.6,32.1,32.2z"/>
<rect x="35.8" y="43.7" class="st1" width="14.3" height="10.2"/>
<path class="st2" d="M37.3,44.3h11.1H49v0.6v7.5V53h-0.6H37.3h-0.6v-0.6v-7.5v-0.6H37.3L37.3,44.3z M37.9,51.1l2.6-2.7l-2.6-2.2
	V51.1L37.9,51.1z M45.1,48.4l2.7,2.7v-5L45.1,48.4L45.1,48.4z M47.1,51.9l-2.8-2.8l-1.2,1l-0.3,0.3l-0.3-0.3L41.2,49l-2.7,2.8
	L47.1,51.9L47.1,51.9z M38.8,45.6l4,3.5l4.1-3.5C46.9,45.6,38.8,45.6,38.8,45.6z"/>
<path class="st2" d="M3.9,13.2l1,1.4c-2,1.7-2.5,4.7-0.9,6.9c0.6,0.9,1.4,1.5,2.4,1.9l0.5-0.7c-0.3-0.2-0.6-0.5-0.8-0.8
	c-1.1-1.6-0.8-3.7,0.6-4.9l1.1,1.6l1.5-5.3L3.9,13.2L3.9,13.2z"/>
<path class="st2" d="M37.2,21.2l-1.3-1c1.5-2.2,1-5.2-1.1-6.9c-0.8-0.7-1.8-1-2.8-1.1l-0.3,0.8c0.4,0.1,0.7,0.3,1,0.6
	c1.5,1.2,1.8,3.3,0.9,4.9L32,17.1l0.1,5.5L37.2,21.2L37.2,21.2z"/>
</svg>
