<?xml version="1.0" encoding="utf-8"?>
<!-- Generator: Adobe Illustrator 23.0.6, SVG Export Plug-In . SVG Version: 6.00 Build 0)  -->
<svg version="1.1" id="Layer_1" xmlns="http://www.w3.org/2000/svg" xmlns:xlink="http://www.w3.org/1999/xlink" x="0px" y="0px" width="40px" height="40px"
	 viewBox="0 0 40 40" style="enable-background:new 0 0 40 40;" xml:space="preserve">
<style type="text/css">
	.st0{fill:#FF0000;}
	.st1{fill:#585C5E;}
</style>
<g>
	<g>
		<path class="st0" d="M20.5,31.9v-2.1c-1.1,0-2.2-0.4-2.9-0.9l0.4-0.7c0.6,0.5,1.6,0.9,2.6,0.9c1.6,0,2.7-1.1,2.7-2.4
			s-0.9-2.1-2.4-2.8c-2-0.9-3.2-1.8-3.2-3.4s1.2-2.8,2.8-3v-2.1h0.8v2.1c1.1,0,1.9,0.4,2.4,0.7l-0.4,0.7c-0.4-0.2-1.2-0.7-2.3-0.7
			c-1.7,0-2.4,1.1-2.4,2.1c0,1.3,0.8,1.9,2.5,2.6c1.9,0.9,3,1.8,3,3.6c0,1.5-1,2.9-2.9,3.3v2.1C21.2,31.9,20.5,31.9,20.5,31.9z"/>
		<path class="st0" d="M22.1,32.7h-2.5v-2.1c-1-0.1-1.9-0.5-2.5-1l-0.6-0.5l1.3-2.2l0.8,0.6c0.5,0.4,1.3,0.7,2.1,0.7
			c1.1,0,1.8-0.6,1.8-1.6c0-0.7-0.3-1.3-1.8-2c-1.9-0.8-3.7-1.9-3.7-4.2c0-1.8,1.1-3.2,2.8-3.7v-2.3h2.5v2.1c0.8,0.1,1.4,0.4,2,0.8
			l0.6,0.4l-1.2,2.4l-0.8-0.5C22.3,19.2,21.7,19,21,19c-1.4,0-1.4,1.1-1.4,1.3c0,0.6,0.2,1,2,1.9c1.6,0.7,3.5,1.9,3.5,4.4
			c0,1.8-1.2,3.4-2.9,3.9v2.2C22.2,32.7,22.1,32.7,22.1,32.7z"/>
	</g>
</g>
<path class="st1" d="M34,4.8h-3.8V3c0-0.7-0.7-1.4-1.6-1.4H11.9c-0.9,0-1.6,0.6-1.6,1.4v1.8H6.5c-1.7,0-3.1,1.4-3.1,3.1V35
	c0,1.7,1.4,3.1,3.1,3.1H34c1.8,0,3.2-1.4,3.2-3.1V7.9C37.2,6.2,35.7,4.8,34,4.8z M25.7,3.1h2.9V10h-2.9V3.1z M35.7,35
	c0,0.9-0.7,1.6-1.7,1.6H6.5c-0.9,0-1.6-0.8-1.6-1.6V7.9c0-0.9,0.8-1.6,1.6-1.6h3.8v3.9c0,0.8,0.7,1.4,1.6,1.4h16.7
	c0.9,0,1.6-0.6,1.6-1.4V6.3H34c0.9,0,1.7,0.8,1.7,1.6V35z"/>
</svg>
