<?xml version="1.0" encoding="utf-8"?>
<!-- Generator: Adobe Illustrator 23.0.6, SVG Export Plug-In . SVG Version: 6.00 Build 0)  -->
<svg version="1.1" id="Layer_1" xmlns="http://www.w3.org/2000/svg" xmlns:xlink="http://www.w3.org/1999/xlink" x="0px" y="0px"  width="40px" height="40px"
	 viewBox="0 0 40 40" style="enable-background:new 0 0 40 40;" xml:space="preserve">
<style type="text/css">
	.st0{fill-rule:evenodd;clip-rule:evenodd;fill:#585C5E;}
	.st1{fill:#585C5E;}
	.st2{fill:#FF0000;}
</style>
<path class="st0" d="M21,32.7l-2.6-3.6H9.5v0.1c0,1.9,1.6,3.5,3.5,3.5h0.9v6.1l3.7-6.1H21L21,32.7z"/>
<path class="st0" d="M32.7,12.5v10.1c0,1.9-0.7,3.7-2.1,5c-1.1,1.1-2.5,1.8-4.1,2l-0.4,3.6h7.4c1.9,0,3.5-1.6,3.5-3.5V16
	c0-1.9-1.6-3.5-3.5-3.5H32.7L32.7,12.5z"/>
<path class="st1" d="M29.5,9c-1.4-1.3-3.4-1.3-3.4-1.3h-3.2c-0.1,0.5-0.2,1-0.4,1.5l3.6,0c0,0,1.4,0,2.3,0.8
	c0.6,0.5,0.8,1.3,0.8,2.4V24c0,0.3-0.2,2.9-3.7,2.9H24L23.5,31l-3.4-4.2H6.6c-0.3-0.1-2.4-0.6-2.4-3.5c0.1-3.2,0.2-4.4,0-5l0-5.8
	c0-0.3,0.3-3.4,3.5-3.4l2.6,0c-0.2-0.5-0.3-1-0.4-1.5H7.7c-3.7,0-4.8,3.1-5,4.8v7.9l0.1-0.1c0,0.9-0.1,2-0.1,3c0,3.5,2.4,4.8,3.7,5
	l13,0l5.2,6.4l0.7-6.3h0.3c4,0,5.1-2.9,5.2-4.4V12.4C30.8,11,30.4,9.8,29.5,9z"/>
<path class="st2" d="M16.5,5.3c2.3,0,4.2,1.9,4.2,4.2s-1.9,4.2-4.2,4.2s-4.2-1.9-4.2-4.2S14.2,5.3,16.5,5.3L16.5,5.3z M23.9,22.6
	c-4.6,1.9-9.4,1.9-14.6,0c-0.1-4.2,2.1-6.9,4.6-7.9l2.7,4.4l2.7-4.4C21.9,16,23.8,18.5,23.9,22.6z"/>
</svg>
