<?xml version="1.0" encoding="utf-8"?>
<!-- Generator: Adobe Illustrator 23.0.6, SVG Export Plug-In . SVG Version: 6.00 Build 0)  -->
<svg version="1.1" id="Layer_1" xmlns="http://www.w3.org/2000/svg" xmlns:xlink="http://www.w3.org/1999/xlink" x="0px" y="0px" width="40px" height="40px"
	 viewBox="0 0 40 40" style="enable-background:new 0 0 40 40;" xml:space="preserve">
<style type="text/css">
	.st0{fill:#FF0000;}
	.st1{fill:none;stroke:#585C5E;stroke-width:1.4;stroke-miterlimit:10;}
	.st2{fill:#585C5E;}
</style>
<path class="st0" d="M34.8,8.4v6.8c1.3,0,2.3-1,2.3-2.3v-2.2C37.1,9.4,36.1,8.4,34.8,8.4z"/>
<path class="st0" d="M37.1,20v2.2c0,1.3-1,2.3-2.3,2.3v-6.8C36.1,17.7,37.1,18.7,37.1,20z"/>
<path class="st0" d="M37.1,29.3v2.2c0,1.3-1,2.3-2.3,2.3V27C36.1,27,37.1,28.1,37.1,29.3z"/>
<path class="st1" d="M13.5,5.1l14,0.1c0,0,6-0.1,6,6.4v20.3c0,0-0.6,5.2-5.3,5.2H13.4l0.2-23.6L13.5,5.1z"/>
<g>
	<path class="st2" d="M14.6,4.4h-3.3c-2.3,0-4.2,1.4-5,3.3h2.2c1.9,0,3.5,1.6,3.5,3.5s-1.6,3.5-3.5,3.5H5.9v3h2.6
		c1.9,0,3.5,1.6,3.5,3.5s-1.6,3.5-3.5,3.5H5.9v3h2.6c1.9,0,3.5,1.6,3.5,3.5s-1.6,3.5-3.5,3.5H6.3c0.8,1.9,2.7,3.3,5,3.3h3.3V4.4z"/>
	<path class="st2" d="M4.8,22.8h3.7c1,0,1.8-0.8,1.8-1.7c0-1-0.8-1.7-1.8-1.7H4.8c-1,0-1.8,0.8-1.8,1.7C3.1,22,3.8,22.8,4.8,22.8z"
		/>
	<path class="st2" d="M4.8,12.9h3.7c1,0,1.8-0.8,1.8-1.7c0-1-0.8-1.7-1.8-1.7H4.8c-1,0-1.8,0.8-1.8,1.7C3.1,12.1,3.8,12.9,4.8,12.9z
		"/>
	<path class="st2" d="M10.3,31c0-1-0.8-1.7-1.8-1.7H4.8c-1,0-1.8,0.8-1.8,1.7c0,1,0.8,1.7,1.8,1.7h3.7C9.5,32.7,10.3,31.9,10.3,31z"
		/>
</g>
</svg>
