<?xml version="1.0" encoding="utf-8"?>
<!-- Generator: Adobe Illustrator 23.0.6, SVG Export Plug-In . SVG Version: 6.00 Build 0)  -->
<svg version="1.1" id="Layer_1" xmlns="http://www.w3.org/2000/svg" xmlns:xlink="http://www.w3.org/1999/xlink" x="0px" y="0px" width="40px" height="40px"
	 viewBox="0 0 40 40" style="enable-background:new 0 0 40 40;" xml:space="preserve">
<style type="text/css">
	.st0{fill:#585C5E;}
	.st1{fill-rule:evenodd;clip-rule:evenodd;fill:#FF0000;}
</style>
<g>
	<path class="st0" d="M17.5,18.7c4.7,0,8.5-3.8,8.5-8.5s-3.8-8.5-8.5-8.5C13,1.7,9,5.7,9,10.2C9,14.9,12.8,18.7,17.5,18.7z
		 M17.5,3.7c3.5,0,6.5,3,6.5,6.5s-3,6.5-6.5,6.5s-6.5-3-6.5-6.5C11,6.7,14,3.7,17.5,3.7z"/>
	<path class="st0" d="M29.8,32.5c0,0.2,0,0.4,0,0.6c-7.8,3-15.9,3-24.3,0c0-5.7,2.6-10.2,6.9-12.2l5.2,8.6l5.3-8.4
		c0.7,0.4,1.3,0.8,1.9,1.3v-2.5c-0.6-0.4-1.2-0.7-1.9-1l-0.8-0.3l-4.5,7.1l-4.4-7.3l-0.8,0.3c-5.8,2.3-9.1,7.9-8.9,15.2l0,0.7
		l0.6,0.2c4.6,1.8,9.2,2.6,13.7,2.6c4.5,0,9-0.9,13.3-2.7l0.6-0.3v-0.7c0-0.4,0-0.9,0-1.3H29.8z"/>
</g>
<path class="st1" d="M35.6,23.4l0.8-1.1c0.4-0.6,0.3-1.4-0.3-1.9l-3-2.3c-0.6-0.4-1.4-0.3-1.9,0.3l-0.8,1.1L35.6,23.4L35.6,23.4z
	 M31.4,21.1l2.5,1.9l1.3,1l-4,5.3c-1.1,0.4-1.4-0.1-1.3-1c-1.1,0-2-0.4-2.4-1.6l2.7-3.4l-0.3-0.2l-2.8,3.5c-0.8,0.2-1-0.3-1-1.1
	c1.3-1.8,2.7-3.5,4-5.3L31.4,21.1L31.4,21.1z M25.7,28.2l-0.2,2.5l1,0.8l2.4-0.9L25.7,28.2z"/>
</svg>
