<?xml version="1.0" encoding="utf-8"?>
<!-- Generator: Adobe Illustrator 23.0.6, SVG Export Plug-In . SVG Version: 6.00 Build 0)  -->
<svg version="1.1" id="Layer_1" xmlns="http://www.w3.org/2000/svg" xmlns:xlink="http://www.w3.org/1999/xlink" x="0px" y="0px" width="40px" height="40px"
	 viewBox="0 0 40 40" style="enable-background:new 0 0 40 40;" xml:space="preserve">
<style type="text/css">
	.st0{fill:#FF0000;}
	.st1{fill:#585C5E;}
</style>
<g>
	<path class="st0" d="M33.3,23.5c0,0,0-13.2,0-16.4c0-0.8-0.7-1.5-1.5-1.5s-1.5,0.7-1.5,1.5c0,2.6,0,16.4,0,16.4s-0.5-0.5-2.8-2.8
		c-0.6-0.6-1.5-0.6-2.1,0s-0.6,1.5,0,2.1c1.9,1.9,5.4,5.4,5.4,5.4c0.6,0.6,1.5,0.6,2.1,0c0,0,3-3,5.3-5.3c0.6-0.6,0.6-1.5,0-2.1
		s-1.5-0.6-2.1,0C34.2,22.6,33.3,23.5,33.3,23.5z"/>
</g>
<g>
	<path class="st1" d="M27.2,29.2H3.9V9.4h23.3c0.2-0.6,1-1.2,1.2-1.8H3H2.1v0.9v21.6V31H3h26.4L27.2,29.2z"/>
	<rect x="6.7" y="20.7" class="st1" width="9.5" height="1.4"/>
	<path class="st0" d="M21.3,26.6c-0.1,0.5-0.2,0.8-0.1,1.1c0.2,0.4,0.4,0.5,1,0.3c0.4-0.2,1.4,0,1.4,0l0.1-1c0,0-0.8-0.1-1.5,0
		c0,0,0-0.1,0-0.2l0,0c0-0.1,0.1-0.3,0.1-0.4c0.1-0.6-0.1-0.9-0.5-1c-0.3-0.1-0.7,0.1-1,0.2c-0.1,0-0.1,0-0.2,0.1
		c-0.5-0.5-1.2-0.3-2,0c-0.3,0.1-0.5,0.2-0.8,0.2c0.3-0.3,0.5-0.6,0.5-1c0.1-1.8-4,1.3-4,1.3l0.6,0.8c0,0,2.4-2.5,2.4-2.1
		c0,0.1-0.2,0.4-0.5,0.6c-0.3,0.3-0.5,0.5-0.5,0.8c0,0.4,0.2,0.7,0.9,0.7c0.6,0,1.1-0.2,1.6-0.3c0.4-0.1,0.7-0.2,0.9-0.2
		c0.1,0.2,0.2,0.3,0.5,0.3c0.2,0,0.5-0.1,0.8-0.2L21.3,26.6L21.3,26.6L21.3,26.6z"/>
	<rect x="6.7" y="13" class="st1" width="16.1" height="1.4"/>
	<rect x="6.7" y="16.8" class="st1" width="16.1" height="1.4"/>
</g>
</svg>
