<?xml version="1.0" encoding="utf-8"?>
<!-- Generator: Adobe Illustrator 23.0.6, SVG Export Plug-In . SVG Version: 6.00 Build 0)  -->
<svg version="1.1" id="Layer_1" xmlns="http://www.w3.org/2000/svg" xmlns:xlink="http://www.w3.org/1999/xlink" x="0px" y="0px" width="40px" height="40px"
	 viewBox="0 0 40 40" style="enable-background:new 0 0 40 40;" xml:space="preserve">
<style type="text/css">
	.st0{fill-rule:evenodd;clip-rule:evenodd;fill:#585C5E;}
	.st1{fill:#FF0000;}
	.st2{fill:none;stroke:#585C5E;stroke-width:1.5;stroke-miterlimit:10;}
	.st3{fill:none;stroke:#585C5E;stroke-miterlimit:10;}
	.st4{fill:#585C5E;}
</style>
<path class="st0" d="M-37.8,0c-1.4,0-2.7,0.1-3.8,0.4v20.7c4.2-0.8,8.3,0.1,12.5,1l0.7,0.1v-2.9c0.5,0.2,1,0.3,1.6,0.3
	s1.1-0.1,1.6-0.3v2.9l0.7-0.1c4.2-0.9,8.4-1.8,12.5-1V0.4C-13.2,0-14.6-0.1-16.1,0C-16-0.5-16-0.9-16-1.4c1.9-0.1,3.6,0.1,5,0.7
	l0.4,0.2V0v1.9l2.4,0.5v23.3c-3.9-0.6-7.6-1.4-16.4,0.2v0.7c-2.8,0.7-1.8,0.7-4.5,0v-0.7c-8.8-1.6-12.5-0.8-16.4-0.2V2.3l2.4-0.5V0
	v-0.5l0.4-0.2c1.4-0.6,3-0.8,4.7-0.7C-37.9-0.9-37.9-0.4-37.8,0L-37.8,0z M-16.9,2.5c-0.1,0.3-0.2,0.6-0.3,0.9
	c1.5-0.1,2.8-0.1,3.8,0.1V2.6C-14.4,2.5-15.6,2.4-16.9,2.5L-16.9,2.5z M-21.3,17.5l-0.2,0.9c1.3-0.3,2.5-0.5,3.6-0.6
	c1.8-0.2,3.3-0.2,4.5,0.1V17c-1.3-0.3-2.8-0.2-4.6,0C-19,17.1-20.1,17.3-21.3,17.5L-21.3,17.5z M-20.7,15.3l-0.2,0.9
	c1.1-0.2,2.1-0.4,3.1-0.5c1.8-0.2,3.3-0.3,4.5,0.1v-0.9c-1.3-0.3-2.8-0.2-4.6,0C-18.9,14.9-19.8,15.1-20.7,15.3L-20.7,15.3z
	 M-19,7.5c0,0.1,0,0.1-0.1,0.2h0.1l-0.2,0.7c0.4-0.1,0.8-0.1,1.3-0.2c1.8-0.2,3.3-0.3,4.5,0.1V7.4c-1.3-0.3-2.8-0.2-4.6,0
	C-18.3,7.4-18.7,7.5-19,7.5L-19,7.5z M-17.9,5c-0.1,0.3-0.3,0.6-0.4,0.9c0.2,0,0.3,0,0.5-0.1c1.8-0.2,3.3-0.3,4.5,0.1V5.1
	C-14.7,4.8-16.2,4.8-17.9,5L-17.9,5z M-37.1,2.5c-1.2-0.1-2.2,0-3.1,0.2v0.9c0.9-0.3,2.1-0.3,3.5-0.2C-36.9,3.1-37,2.8-37.1,2.5
	L-37.1,2.5z M-32.7,17.5c-1-0.2-2-0.4-3-0.5c-1.7-0.2-3.3-0.3-4.6,0v0.9c1.2-0.3,2.7-0.3,4.5-0.1c1,0.1,2.1,0.3,3.2,0.5L-32.7,17.5
	L-32.7,17.5z M-33.2,15.2c-0.9-0.2-1.7-0.3-2.5-0.4c-1.7-0.2-3.3-0.3-4.6,0v0.9c1.2-0.3,2.7-0.3,4.5-0.1c0.9,0.1,1.8,0.3,2.8,0.5
	L-33.2,15.2L-33.2,15.2z M-34.9,7.5c-0.2,0-0.5-0.1-0.7-0.1c-1.7-0.2-3.3-0.3-4.6,0v0.9C-39,8-37.5,8-35.7,8.2
	c0.4,0,0.7,0.1,1.1,0.2C-34.7,8.1-34.8,7.8-34.9,7.5L-34.9,7.5z M-36.1,5c-1.6-0.2-3-0.2-4.2,0.1V6c1.2-0.3,2.7-0.3,4.5-0.1h0.2
	C-35.8,5.6-35.9,5.3-36.1,5L-36.1,5z"/>
<g>
	<g>
		<path class="st1" d="M20.3,11.5L20.3,11.5L20.3,11.5c1.5,0,2.7-1.2,2.7-2.6c0-1.5-1.2-2.6-2.6-2.6l0,0l0,0c-1.5,0-2.6,1.2-2.6,2.6
			C17.6,10.4,18.8,11.5,20.3,11.5z M25.3,19.4l1.1-1l-2.9-6.3H22l-0.1,0.1v-0.1l-1.7,2l-1.7-2v0.1l-0.1-0.1h-1.5L14,18.4l1.1,1
			l1.9-3.2l0.1,2.6l-0.2,1.1v0.7l-0.1,9.6h2.6l0.4-8.2h1l0.4,8.2h2.6l-0.4-9.6v-0.7l-0.2-1.1l0.1-2.6L25.3,19.4z"/>
	</g>
</g>
<path class="st2" d="M9.6,8.8H4.4v23.4c0,0,11.1-1.2,15.2,2.1c0,0,6.7-3.5,15.8-1.5L35.3,8.2h-4.5"/>
<path class="st2" d="M1.8,8.2v27.3c0,0,12.4-2.2,17.9,2.1c0,0,6.5-4.1,18.2-0.8V7.5"/>
<line class="st3" x1="19.7" y1="34.1" x2="19.7" y2="37.8"/>
<rect x="6.7" y="15.4" class="st4" width="5.3" height="0.9"/>
<rect x="6.7" y="20.1" class="st4" width="5.3" height="0.9"/>
<rect x="6.7" y="24.9" class="st4" width="5.3" height="0.9"/>
<rect x="27.5" y="15.4" class="st4" width="5.3" height="0.9"/>
<rect x="27.5" y="20.1" class="st4" width="5.3" height="0.9"/>
<rect x="27.5" y="24.9" class="st4" width="5.3" height="0.9"/>
</svg>
